/* XPM */
static char *_a275028ce02432af98b6783c7277d4aXqbenvDqpFtl4EqK[] = {
/* columns rows colors chars-per-pixel */
"64 64 247 2 ",
"   c #191C1C",
".  c #14120F",
"X  c #27190C",
"o  c #271C14",
"O  c #31190D",
"+  c #1E201E",
"@  c #27231A",
"#  c #35281A",
"$  c #372F1B",
"%  c #1D1E21",
"&  c #1E2224",
"*  c #1C272B",
"=  c #1E2C31",
"-  c #222323",
";  c #222529",
":  c #242A2D",
">  c #292C2D",
",  c #2A2925",
"<  c #362C25",
"1  c #3A3527",
"2  c #242D32",
"3  c #2A2E34",
"4  c #262F38",
"5  c #273135",
"6  c #2B3235",
"7  c #2B343B",
"8  c #2D393D",
"9  c #27363D",
"0  c #32363A",
"q  c #323A3D",
"w  c #383835",
"e  c #201F24",
"r  c #442A1C",
"t  c #4E2F15",
"y  c #473828",
"u  c #553827",
"i  c #473C35",
"p  c #463327",
"a  c #3E423E",
"s  c #474338",
"d  c #554735",
"f  c #4D462F",
"g  c #6B4D38",
"h  c #2D3B42",
"j  c #2D3B45",
"k  c #323C43",
"l  c #393E43",
"z  c #413F40",
"x  c #38454A",
"c  c #2F4149",
"v  c #484A4A",
"b  c #544C47",
"n  c #5A5749",
"m  c #464D53",
"M  c #4B5355",
"N  c #4C555A",
"B  c #4B585A",
"V  c #52545B",
"C  c #535B5D",
"Z  c #595B56",
"A  c #4D5153",
"S  c #665A46",
"D  c #775A47",
"F  c #685A53",
"G  c #5B6359",
"H  c #526159",
"J  c #6B644C",
"K  c #66614A",
"L  c #77684B",
"P  c #696557",
"I  c #786A58",
"U  c #7B7156",
"Y  c #4C5A63",
"T  c #535D63",
"R  c #575C63",
"E  c #546264",
"W  c #5A6365",
"Q  c #5A6769",
"!  c #5B6B74",
"~  c #586772",
"^  c #526468",
"/  c #626B6D",
"(  c #666968",
")  c #68736A",
"_  c #646D72",
"`  c #677377",
"'  c #767977",
"]  c #7A6E66",
"[  c #88593C",
"{  c #91603F",
"}  c #895B46",
"|  c #856855",
" . c #946B56",
".. c #867A5B",
"X. c #977559",
"o. c #92654A",
"O. c #A47659",
"+. c #A66A58",
"@. c #877C67",
"#. c #977A66",
"$. c #847773",
"%. c #A67D66",
"&. c #B47B6B",
"*. c #C67B7F",
"=. c #768279",
"-. c #8E825E",
";. c #8C836D",
":. c #8C8263",
">. c #95886A",
",. c #88847C",
"<. c #958B73",
"1. c #998E73",
"2. c #958977",
"3. c #9C9275",
"4. c #9C937A",
"5. c #A98569",
"6. c #B88768",
"7. c #A98674",
"8. c #B78D75",
"9. c #A1967A",
"0. c #A49A7C",
"q. c #A59978",
"w. c #B8957A",
"e. c #AD956C",
"r. c #ABA17A",
"t. c #B1A37C",
"y. c #B2825E",
"u. c #C79779",
"i. c #D29C7B",
"p. c #C18D6F",
"a. c #CEA07C",
"s. c #687884",
"d. c #757D86",
"f. c #877F81",
"g. c #76838C",
"h. c #7B8B93",
"j. c #888987",
"k. c #97978A",
"l. c #989795",
"z. c #898F91",
"x. c #A29B83",
"c. c #A79B88",
"v. c #B89889",
"b. c #A89895",
"n. c #B39B94",
"m. c #B49D99",
"M. c #A28F8B",
"N. c #AAA48A",
"B. c #B7A985",
"V. c #A9A398",
"C. c #BCA39C",
"Z. c #B4A797",
"A. c #BCB497",
"S. c #BAB191",
"D. c #A89EA3",
"F. c #ABA9A6",
"G. c #BAA8A6",
"H. c #BBB4A9",
"J. c #BEADB2",
"K. c #BBB8B5",
"L. c #AFB0B4",
"P. c #98A4A2",
"I. c #C69C85",
"U. c #D5938B",
"Y. c #C8A389",
"T. c #D6A78A",
"R. c #C6B68C",
"E. c #C9A997",
"W. c #D7AA95",
"Q. c #C7BA97",
"!. c #DAB499",
"~. c #DFB28B",
"^. c #E2AE9A",
"/. c #E3B39D",
"(. c #E7BA9D",
"). c #C3ABAB",
"_. c #CAADAC",
"`. c #C7ACA5",
"'. c #CCB2AB",
"]. c #C9B5A9",
"[. c #D2B4AA",
"{. c #D9B7A6",
"}. c #C5ADB3",
"|. c #C8B6B9",
" X c #D5BAB7",
".X c #D1AFA1",
"XX c #E7BAA5",
"oX c #EDB5A7",
"OX c #D8C79B",
"+X c #CEC196",
"@X c #CCC2A4",
"#X c #D8C8A6",
"$X c #C9C3BB",
"%X c #D9C5BC",
"&X c #DDD4B5",
"*X c #E8C5A9",
"=X c #F5C7AC",
"-X c #E8D6A9",
";X c #F2DCAC",
":X c #EBC9B7",
">X c #FBCCB5",
",X c #F5C9B5",
"<X c #E9D8B5",
"1X c #F5D3BC",
"2X c #FAD6B9",
"3X c #E7E2BD",
"4X c #F9E6B9",
"5X c #F5E1AF",
"6X c #C9BAC4",
"7X c #D3BDC4",
"8X c #BFC8C5",
"9X c #CAC4C8",
"0X c #D8C5C6",
"qX c #DCD7C6",
"wX c #CBCBD4",
"eX c #D4CAD4",
"rX c #D5C9D6",
"tX c #DAD4DC",
"yX c #D8D8DB",
"uX c #CAD6D9",
"iX c #E9D7C5",
"pX c #FBD8C4",
"aX c #E8DBD8",
"sX c #EAD1CC",
"dX c #DEE4D2",
"fX c #DDE2CA",
"gX c #E7E7C8",
"hX c #FCECC5",
"jX c #F6EAC7",
"kX c #FAF2CA",
"lX c #E4E5D2",
"zX c #E4EAD2",
"xX c #E9E9D6",
"cX c #F7E7D5",
"vX c #FBF4D6",
"bX c #EFF3DC",
"nX c #DDDCE4",
"mX c #DAD8E5",
"MX c #CDD4E4",
"NX c #E3DCE8",
"BX c #DEE4EB",
"VX c #E7E6E7",
"CX c #FBF5EA",
"ZX c #E7E9F6",
"AX c #FAFAF5",
"SX c #EEEFF1",
"DX c #B3BCC0",
/* pixels */
"lXxXlXxXzXzXfXzXzXzXzXzXzXzXfXzX3XkXvXvXvXbXgXgX&X].#X].Q.gXjXkXjXhXhX4XhX4X4X5XOX+XS.+XOX+XB.r.q.9.3.3.0.N.N.9.1.3.3.q.q.q.q.q.",
"lXlXlXaXzXzXzXdXzXbXzXzXbXfXzXgXbXbXfXS.] L =.U I S f d f :.Q.#XcXjXhXhX4X4X4X3X-X+X+XOX-X+Xa.t.q.0.3.3.3.r.r.N.4.3.4.0.3.3.3.q.",
"lXlXlXlXzXzXzXzXbXfXzXzXzXzX3XqX&XN.U 1 $ $ $ $ 1 $ 1 f $ y 1.A.Q.vXjXhX4X4XkX4X-XOXOX-X-XOXB.t.0.q.3.<.1.3.0.N.4.0.9.q.q.3.q.q.",
"dXdXfXfXzXzXzXgXfXzXzXgXgX&X0.K f f f $ 1 @ X 1 $ @ 1 d 1 f d 4.B.{.jXjXkXkX4X4X5X-X-X;X-XOXt.t.r.0.4.3.3.3.4.0.9.3.3.9.3.q.3.r.",
"dXdXzXzXzXzXzXzXgXgXgXQ.0.U f f f 1 1 $ < @ o # $ @ 1 1 f s f K r.g :.#X+X4X4X4X5X;X;X;X5XOXR.t.r.0.r.3.3.3.4.N.9.9.1.1.q.q.0.0.",
"dXdXzXzXzXzXgXzXzXfXA.N.U 1 f $ 1 1 w > $ , 3 3 @ , i n 1 1 # $ f f =.S.-XS.4X4X4X5X5X5X5X#XR.t.r.0.q.3.3.3.4.x.9.1.1.<.3.4.0.0.",
"zXzXzXgXgXgXgXzXgX3X&XN.J -.=.f n 1 s w w w w w > , s b 1 @ @ X X 1 n K S.+X-X4X4X5X5X;X;X-XR.t.r.0.3.1.1.<.3.4.9.2.>.<.2.7.9.9.",
"zXgXgXfXgXgX3X3X3X3XgXN.N.@X>.L d + s v w w b z @ w Z v < o . X X $ 1 $ g B.-X5X4X5X5X;X-X#XR.r.4.4.3.3.1.>.<.>.2.>.;.<.<.1.2.9.",
"gXgXgXgX3XgX3X3X3XfX3XV.Z.;.I n p , i F z v V i w b b < < o X X . @ # @ y L -X<X4X4X4X;XOXOXR.r.3.3.1.3.3.3.<.;.@.;.;.2.2.2.<.<.",
"kXkX3XgX3X3X3X3X3X@XA.<.U n s 1 o # F b i i i z b i < o O < u < X X @ y f y N.4XhX4X;X*X!.Q.B.9.1.>.<.1.<.<.;.;.#.;.@.;.;.2.2.2.",
"kXkXkXkXkX3X4X&Xr.:.:.U d i i # X X u y p p < d i r O O r D #.| p < $ y y o S &XhX4X;XOXR.B.N.9.1.:.;.;.;.;.;.;.;.;.$.;.@.;.;.;.",
"kXkXkX3XkX4XjXR.U -.L d n S p O u # u d u u p u # r u S  .%.8.7.D $ $ $ $ $ d <XjX<X-X!.R.t.N.4.3.1.<.<.<.4.2.<.4.2.2.2.2.2.;.@.",
"bXkXkXkXkXkXkXQ.Q.#Xv.F | F u r f g  .5.#.} L D | #.v.I.T.u.8.8.#.i p # @ $ K jX1X<X-XQ.B.B.N.N.0.k.x.N.N.N.V.x.N.c.k.x.c.k.4.1.",
"kXbXbXkXkX4XkX-X!.<XB.I | u r S } w./.*X:X{.W.E.^.oXXXW.T.u.u.6. .D y O # # ' vXgX4X;X#XQ.R.A.S.N.S.N.N.V.S.N.V.k.x.N.l.c.b.c.x.",
"zXzXkXgXjXjXkXkXR.q.%.| g p g  .w.^.=X=X,X1X=X,X=X*XoX/.T.i.i.6.7.D u # $ X P vXkXjX4X<X#X@XQ.A.A.S.N.P.x.k.k.k.4.2.2.2.4.4.4.4.",
"A.A.A.@X@X$X#X#X#X5.#.} u p | %./.(.=X2X,X=X>X,X=X=X=X(.~.i.i.p.%.| g 1 < f L vXcXhXhX<X#X!.Q.A.N.S.S.N.N.x.3.;.;.;.:.@.@...=.@.",
"h.,.=.4.z.k.k.N.Z.E.9.| u g g I.XX=X>X=X4X,X,X=X=X=X*X!.~.T.i.p.5.X.d t p p 4.vX4X4X5X5X-XOX+XA.N.N.S.A.+XA.N.3.3.=.1.=.-.-.-.>.",
"=.=.=.=.=.=.=.=.,.k.#.S t g } W.=XXX=X,X2X,X>X,X,X=XXX(.T.T.T.p.5.o.g O r r 2.hX3X-X;X-XOX#XOX+X@XS.B.N.S.+X@X@XS.r.r.S.t.t.B.t.",
"=.=.) =.=.=.=.=.) @.#.I D D  .XX>X=X>X2X2X>X2X=XpXoX:XXX#XT.T.8.6.X.g t r p ..Q.OXOXOXOXOXOXOXOX+XA.S.r.r.r.S.+X-X+XS.r.R.A.+XR.",
"Q ) H G H H H H P ] @.;.} D } XX>X*X,XpXpXpXpX=X>X,X{.w.%. .X.X.O.O.[ t t g X.t.+X+X+X+X+XOX+XOX+X+X+XS.B.r.r.e.S.3X-Xr.r.B.+XR.",
"G Q G G n H n H H n P U L D g XX.X8.5.7.w.!.oX,X,XI. .} X.7.#. .X.y.o.u t %.w.5.e.e.e.e.e.t.t.t.S.t.t.R.R.t.r.r.-.B.jX4XB.>.r.r.",
") Q G H H M H v n n K P | D | oXXXXX:X{.I.E.oX,XoX5.%.7.v.%.7.7.6.8.y.g [ 8.v.X.L L { =.=.-.-.-.-.-.-.-.e.-.>.e.>.U r.3X3XS.3.:.",
") ) G G G H H M H H G P I | &.pXcX{.I.#. .v.XXpXXX&.8.v.v.D }  .8.w.8.o.%.w.a.-.K L L K J J J K =.L K L L U U L ..J K -.@XgXr.=.",
"^ ^ H M H M M x x M H P P I v.pXpX^.E.7.7.I.oX>XoXU.8.E..XE.v.v.W.I.6.5.u.R.a.-.K J K K K K K K g K g K K K L K S S n 1 K 0.:.d ",
"P.P.P.P.z.f.d.s.` ! / ) ] | ).pXpXpXsX*XXXXX,X>X/.T.I.Y.#X{.{.XXXXw.8.7.I.v.!...S S K K n K n K n n S n n K P n n K b 1 1 b s b ",
"SXSXZXBXZXZXZXMXMX8X8X8X|.}.0XcXpXpXpX1X,XpX2X>X^.I.v.I.{.:X=X{.T.w.w.7.w.E.v.I J P G G K H n n n n n n Z n n n G Z v < a Z A a ",
"ZXZXZXZXZXZXZXNXZXBXBXBXNXcXNXaXpX1XpX1XpX2X,X>XoXu.I.I.W.XX=XoXI.w.8.%.7.'.|.H.G.F.F.D.P.F.l.P.l.k.k.z.k.z.k.j.j.=.' ) d.z.j.' ",
"ZXSXSXZXZXZXZXZXBXnXBXyXNXaXNXsXpXiXpX1XpXpX>XpXoX&.8.I.Y.!.{.W.u.6.%.#.|.aXxXNXNXNXNXtXnXdXmXyXmXdXnXnXdXnXyXyXyXwXwX9XwX8XwXmX",
"ZXZXZXZXZXZXZXmXVXmXNXmXmXtXNXsXpXpXpXpXpX:XU.I.u.o.O.8.W.XX/.T.8.6.7.n.NXVXNXmXmXNXmXNXmXmXNXmXnXnXnXnXBXnXBXNXnXnXVXmXyXwXnXnX",
"BXZXNXNXNXNXNXNXtXwXrX7XrXrXrXrXsXpX1X:X2X1XoX^.oXU.I.I.XXXX^.i.p.8.7.].aXeXMXBXmXmXmXmXmXmXmXmXBXnXnXnXnXnXnXyXmXyXyXtXeXwXtXtX",
"nXNXNXmXmXmXrXrXrX6X7X7XrX7XrX7X:XpXpX1XpX1X=X>XoXoXW.I.Y.W.T.p.p.6.5.].tXMXMXMXMXmXtXtXNXtXMXmXmXmXmXmXtXyXtXtXyXtXtXtXwX6X9XwX",
"MXrXrXrX7XrX7X7X6X6X7X6X}.7X6X}.%XpX2X,X:X,XoXpX^.^.U.I.u.u.i.6.y.6.7.E.9X9XMXwXwXwX0X0XrXrXrXwXwXrXMXwXeXeXwXeX9X0X6X6XL.K.9X6X",
"rXrX0X0X7X7X7X|. X}.}._.}.}.}._._.pX1X>X(.^.U.u.*.*.+.} O.a.i.p.y.&.%.E. X6X9X9X7X7X7X7X6X6X6X6X7X6X6X6X6X6X6X6X}.6X6XJ.G.}.6XJ.",
"0X7X0X0X7X7X X X}._._._._._._._.`. XpXpX(.oXoX^.U.U.*.p.i.~.i.y.6.O.#.7.n.c.9XL.}.}.}.}.6X6X6X6X6X6X6X6X6X}.J.J.}.J.G.m.D.G.J.m.",
"sX7X0X7X X X X[. X_._._._._.`._.`.`.,X1X=X>X>XoX^.U.T.U.i.i.p.O.O.[ O.8.@.@.' |.G.}.}.}.}.J.J.}.J.J.J.G.J.G.G.).G.m.b.b.m.D.m.b.",
"7XsX0X:X0X X X X X[.'.'._.`.`.`._.[.E.=X2X=X=X=XoXoX^.T.i.p.y.+.{ O.8.8.$.H.< k.J.).).G.J.J.).}.).).G.G.C.C.C.C.b.b.M.m.m.m.m.m.",
":X:X7X0X:X X X X[.[.[.[.'..X`.'._._..XoX2X*X=X2X,XoXoX^.i.p.+.{ o.y.7.7.2.%Xw 1 M.}.}.).C.G.).G.m.C.C.C.C.C.m.n.n.m.m.m.m.m.m.n.",
"7X0X7X:X%X X X X X[.[.[.[.'.[.'._. X_.c.1X=X;X>XsX,X^.U.p.{ [ { y.u.6.7.C.0Xw ; < $.D.}.].G.).).C.C.C.E.C.C.m.m.m.C.C.m.m.n.U.f.",
"0X:X:X7X%X%X X X{.[.[.[.[.{.[.[. X|.M.@.1X;X*X(.{.W.U.&.o.[ o.6.p.p.w.>.].qX> - , e < A j.m.).)._.).).G.Z.Z.n.m.).C.C.I.n.n.m.m.",
"0X0X X7X X X[.[.[._.[..X.X].[.[.7XD.F M.cX;X=X=XW.Y.p.%.o.+.6.p.a.p.u.7.qX$X> > > > ; o - w V ] M.m.G.K.G.G.F.Z.m.m.m.m.n.n.n.n.",
"%X|._.M.$.] F F I | b.).`. X].G.$.j.F b.cX2X=X>X=X=X^.T.i.p.w.w.a.a.t.Y.CXL., : * 2 : : 0 0 0 6 w z V ) j.b.F.H.J.F.V.Z.n.v.m.n.",
"|.7X}.b.$.| ] | ] ,.m.).$X|.,.b ( ' Z l.sX:X>X=X=XoX(.^.^.T.Y.u.a.~.Y.#XCXF.; : 2 = 2 : 4 j k 0 0 q 0 5 5 x C ' l.D.G.G.Z.m.v.C.",
" X0X7X0X7X0X7X7X9X$X9X$XV.P a H / ` R f.iXv.2X=X=X=X>X=XoX^.i.T.W.W.E.xXCX$.& : = = 2 = 4 j c c c j h j k h 8 6 l Z $.j.M.G.c.m.",
"7X0X7X7X7X6X6X6X$XK.l.( M x x Q ! Q ( ( cXv.T.4X>X>XoXXX(.~.I.W.!.W.#XvXxXC % 2 = = 4 4 4 j c c x j j j h j c q q 6 3 < F G.Z.m.",
"0XeX0X9X9X6X6XK.l._ V M B x x Y ~ R ~ v aXsXX.W.>X>X=XoX^.~.!././.{.pXCX9Xx ; 4 = = 5 4 3 7 j c j c x c c 9 c c k 6 6 , w M.G.V.",
"D.D.D.D.L.F.l.` M m V B x x B E R R _ V J.CX0.X.T.XX=XoXXX(.XXoX{.:XCXCXF.> > : 2 2 3 6 3 4 j c x j j j 8 c c 8 c 6 > - @ j.|.V.",
"g.Q R Q Q W R M R A m m x B Y V T T / V ,.AX<XB.7.I./.XX/.(.XX,X:XcXCXSXj.: 3 : 2 5 > > 6 3 7 k j l j j c c c c 6 6 6 , @ ( J.F.",
"MXz.E ` / Q W W N N N x x B Y ^ Y ^ _ m ( AX%XkX:XY.I.E.T.W.^.pXpXAXVXVX) : 3 3 2 2 6 0 w 3 4 k j j l j 8 8 8 8 8 6 : & @ F L.Z.",
"DX! ^ ! s.~ ~ Y Y Y B x m Y B ^ Y ^ Y C Z eXwXbXvX<XW.oXW..XXXcXcXVXSXdXv : 6 > : 3 3 0 3 3 2 h l h j c 6 h 8 q 5 0 ; e   b H.F.",
"h.~ ^ ! s.s.~ ^ Y Y Y x M H Y ^ H Y Q C A L.AXCXAXvXW.W.oX^. XcXaXyXxXDX6 6 8 = 4 3 3 3 0 h 2 4 j j x c 8 c q 8 : 0 e % @ w V.H.",
"s.s.~ s.g.s.~ ~ B x Y x m T T E Y H R Z v ' AXAXAXiXE.oX/.W.sXvXAXAXAXL.* 6 6 2 3 4 3 7 k k 2 % h j h 9 6 8 8 5 3 3 e o @ @ ' N.",
"s.s.~ s.s.s.Y Y m Y x x m T E Y T E V V V v 6XAXCX%XW.oX^.W.XXCXCXSXAX=.+ > 6 8 4 3 h 4 3 0 2 2 8 8 = * 6 7 7 : 6 : ; e + + n ,.",
"s.s.~ s.s.~ ~ Y N N M x m H T T B E M V R v j.AXCX{.{.^.^./.{.iXCXAXVXA > > 6 6 7 4 4 3 4 h 3 k k 9 * * 8 7 6 = 6 : & & & - a V.",
"h.s.^ s.s.~ ~ Y N M M v M B B B C V V V V v C $XAX]..XXX^.oX=X{.0XbX|.< 6 6 q 5 7 2 4 4 k k j l k 2 * 6 q 7 2 & 3 4 &   - @ > H.",
"g.s.~ ~ ~ ~ ~ m Y m N m A B B C V V V V V m v z.CXqX'.W.oX^.,XpX0XxXz.- 3 3 0 4 4 3 7 h k l h k 8 * 2 q q 6 * & 3 3 + + + + + j.",
"g.s.~ ~ s.~ ~ Y Y B V M N N M C A m m v R Y x ' F.].%X.X[.{.1XsXsXyXZ , 6 6 4 3 4 7 h h k k 4 k 5 * 6 q 6 > & & 0 ; + * & + + a ",
"g.g.~ ~ s.! ~ Y ^ T ( R C C W W Q B M M B C m x K.|.%XsX'.XX:XiXaX8Xw 6 0 6 6 6 3 k 4 k l j j h * 2 6 q 5 2   & 6 ; % % % % - > ",
"h.g.! ^ s.! ! Y Q R R R R R Q Q Q W C B N T M x l.CXaXCXcX[.#X:XxXl.< > 6 6 8 8 h h k k k k j j ; : 6 q 6 2   * 3 ; ; % % - - , ",
"h.g.s.Y s.~ ~ T Q W R / / Q Q _ ) Q W C Y T B v E VXaXCXAXcX[.qXxX' , 6 6 2 5 9 k 3 k k 4 k k ; 5 2 3 q 6 , . = 3 ; ; e % + + - ",
"h.g.s.Y ! ! ~ T T Q Q ( / ( Q _ ` Q W H C C B N 8 8XSXCXCXAX%XqXK.v : 0 > 6 7 9 h j l k k k e ; q 4 6 6 6 & . : 6 ; ; e & + + - ",
"h.g.g.Y Y s.~ ~ R / / ( _ _ _ ` ' ! W W C C R C w ' AXAXAXAXbX0Xl.w 6 6 9 8 8 8 h k l k k 9 & 2 q 3 3 3 2 % . > 3 ; , ; % &   @ ",
"h.g.s.~ Y ! ~ ~ T Q _ ) ( ` ` _ ` / Q W C W W C x x uXAXAXAXCXtXl.q w 6 8 6 = 8 j l k k k 2 & 5 7 2 3 : *   . * 6 : : ; % +   - ",
"h.g.d.~ N ~ _ ~ T R ( _ ( _ ` _ ` / / Q ( Q G C C c z.AXSXAXVXAX' w 6 6 8 8 8 c k k k k 6 2 3 3 4 2 3 ; ; % . ; 0 > > ; e % - @ ",
"z.d.s.s.m Y ` ^ R W ` ` _ ) ` ` ` _ Q ) ( W W W Z x x BXAXSXVXVXG 6 7 8 8 8 8 8 k 0 k k : : q 3 4 4 5 * * % . e 0 > > ;   - % - "
};
