/* XPM */
static char *_234416c827943c8a1666a8c0a03fd72p20woYXcEDwSsj4m[] = {
/* columns rows colors chars-per-pixel */
"96 64 245 2 ",
"   c #1A0905",
".  c #1A1009",
"X  c #250A04",
"o  c #350900",
"O  c #2B140C",
"+  c #261408",
"@  c #371708",
"#  c #2A1813",
"$  c #351C13",
"%  c #340B11",
"&  c #3A2418",
"*  c #3C220B",
"=  c #34322D",
"-  c #4D1906",
";  c #651B09",
":  c #48230D",
">  c #58270C",
",  c #482919",
"<  c #582A14",
"1  c #583419",
"2  c #503219",
"3  c #68270A",
"4  c #642B14",
"5  c #762C14",
"6  c #633315",
"7  c #6C3B1C",
"8  c #68351A",
"9  c #773817",
"0  c #772F0C",
"q  c #442D25",
"w  c #4A3428",
"e  c #573926",
"r  c #553A30",
"t  c #683C24",
"y  c #743E28",
"u  c #73441F",
"i  c #5C4333",
"p  c #694327",
"a  c #784627",
"s  c #7C502F",
"d  c #674839",
"f  c #7A5337",
"g  c #774934",
"h  c #344C58",
"j  c #31515E",
"k  c #304C5A",
"l  c #3B5B6C",
"z  c #355566",
"x  c #37586B",
"c  c #3C606D",
"v  c #695348",
"b  c #73594E",
"n  c #756258",
"m  c #425B6B",
"M  c #496675",
"N  c #516B7B",
"B  c #4C696F",
"V  c #746D6A",
"C  c #515353",
"Z  c #873A18",
"A  c #993C1D",
"S  c #853B27",
"D  c #86461D",
"F  c #94481D",
"G  c #864A28",
"H  c #964B27",
"J  c #89522C",
"K  c #98552B",
"L  c #895534",
"P  c #965935",
"I  c #884A35",
"U  c #A45729",
"Y  c #A55B35",
"T  c #99633D",
"R  c #A8653A",
"E  c #B4683B",
"W  c #B8713E",
"Q  c #905D47",
"!  c #AA5F4D",
"~  c #9A6747",
"^  c #8B6751",
"/  c #A76946",
"(  c #B56C48",
")  c #AA734A",
"_  c #B87649",
"`  c #A97656",
"'  c #B77957",
"]  c #AC6C51",
"[  c #8C756E",
"{  c #B67C65",
"}  c #C27A58",
"|  c #C37B4A",
" . c #B8845B",
".. c #AD815E",
"X. c #93857A",
"o. c #BB8768",
"O. c #B58B72",
"+. c #C58457",
"@. c #D08657",
"#. c #C38966",
"$. c #C9936A",
"%. c #CA9576",
"&. c #D59A77",
"*. c #C88B73",
"=. c #D7A37B",
"-. c #E1AB7F",
";. c #5A7384",
":. c #5B7787",
">. c #547186",
",. c #627B8C",
"<. c #647E92",
"1. c #867D80",
"2. c #658295",
"3. c #6C8494",
"4. c #6B889A",
"5. c #728C9C",
"6. c #778B9B",
"7. c #7A8E99",
"8. c #738FA1",
"9. c #7B93A3",
"0. c #7B9BAD",
"q. c #7795A7",
"w. c #7296AA",
"e. c #7097AC",
"r. c #938A8B",
"t. c #A99591",
"y. c #849CAB",
"u. c #8599A8",
"i. c #8C9DAC",
"p. c #8BA1AE",
"a. c #86A1AD",
"s. c #8CA4B3",
"d. c #89A6B8",
"f. c #94ACBB",
"g. c #9AAEBC",
"h. c #92A8B6",
"j. c #9CB1BE",
"k. c #92B2BF",
"l. c #AAAEB4",
"z. c #BEA193",
"x. c #CE9C85",
"c. c #DAA889",
"v. c #DDB49A",
"b. c #D2A98E",
"n. c #E4B69A",
"m. c #E6B08F",
"M. c #D7BAA8",
"N. c #C7BCB5",
"B. c #C8B4AC",
"V. c #E8BAA4",
"C. c #E8B8AD",
"Z. c #DDC4B7",
"A. c #CFC5B6",
"S. c #E9C3A9",
"D. c #E7C7B6",
"F. c #F4CAB0",
"G. c #F4C09B",
"H. c #96AEC1",
"J. c #9CB4C3",
"K. c #9AB6C8",
"L. c #8CAEC1",
"P. c #A3B5C3",
"I. c #A4B9C4",
"U. c #A4BCCB",
"Y. c #AABDCB",
"T. c #A7BAC7",
"R. c #B6BAC5",
"E. c #A6BFD5",
"W. c #C1BEC5",
"Q. c #ACC1CC",
"!. c #A8C0CB",
"~. c #B2C4CD",
"^. c #B7C8CF",
"/. c #ADC4D3",
"(. c #ABC3DB",
"). c #A9C4D6",
"_. c #B3C5D2",
"`. c #B4C9D4",
"'. c #BBCBD5",
"]. c #B1C7DD",
"[. c #B4CADD",
"{. c #BBCDDC",
"}. c #BBC5D3",
"|. c #BDD1DD",
" X c #BFD0D7",
".X c #B6CBE1",
"XX c #BACEE2",
"oX c #BDD1E3",
"OX c #BCD3E8",
"+X c #C5CDD9",
"@X c #C3D3DC",
"#X c #CAD6DD",
"$X c #D9DAD7",
"%X c #D1C9C8",
"&X c #E9CBC2",
"*X c #F6D5C9",
"=X c #EAD8D2",
"-X c #EDE3DB",
";X c #C3D4E4",
":X c #C6D9E5",
">X c #CBDBE5",
",X c #C3D5EA",
"<X c #C6D9EB",
"1X c #CCDCEB",
"2X c #CAD6E7",
"3X c #D1DEE4",
"4X c #D2DEEC",
"5X c #DCDEE5",
"6X c #CBDDF2",
"7X c #C6DBF2",
"8X c #D2DEF2",
"9X c #CEE1EE",
"0X c #D4E2ED",
"qX c #DAE5ED",
"wX c #DEE9ED",
"eX c #D5E2E6",
"rX c #CDE1F3",
"tX c #CAE5FB",
"yX c #D4E4F2",
"uX c #DAE6F2",
"iX c #DCEAF4",
"pX c #DCECFA",
"aX c #D5E8F8",
"sX c #DDF2FD",
"dX c #E3EBEE",
"fX c #E8E6E7",
"gX c #E3EDF4",
"hX c #EAEEF3",
"jX c #E3EEF9",
"kX c #E4E9F4",
"lX c #E6F1F5",
"zX c #EBF2F5",
"xX c #E5F1FB",
"cX c #EBF4FB",
"vX c #ECFAFD",
"bX c #E6FAFF",
"nX c #F4F5F4",
"mX c #F9F7F3",
"MX c #FBF9F6",
"NX c #F2F6F9",
"BX c #F4FAFC",
"VX c #FCFDFC",
"CX c #F7F8F6",
"ZX c #F4F1EC",
"AX c #F3DFE0",
/* pixels */
"].].]..X.X]..X.XXXXX;XXXXX;XXX;X;X;X;X,X;X2X>X1X1X1X2X1X<X1X<X1X1X,X,X2X2X;X;X1X4X6X6XyX6X8X4X8X6X6X8X8X8X8X8X8X8X6XrXtX7X1X2X7X,X,X,X,X,X,X,X;X,X,XXX,X;X,X2X,X;X;X.X+XOX.X.X.X.X.X].].].]..XXX",
"]..X.X.X[..XXXXXXXXXXXXX;X.X+X.XXXoX;X,X,X2X<X1X1X1X1X2X1X1X1X4X1X1X1X1X1X<X<X1X8X4XaX9X1XrXtX6X1XyX0X2X6XtXaXpXaXaXyXyX>X4X6X7X2X,X;X,X,X,X,X,X,XOX,X;X;X;X;X;X;X;X,X;XXX,X.XXX.X.X.X]..X.X.X.X",
"XXXX.X.X[..XXXXX.X.XXX.X.X;XXXXX@X@XoX;X;X,X<X>X1X1X6X1X0X4X4X0X4X4X1X4XyX1X4XyXyXrX4X8X2X1XyXaX4X+Xl.l.t.t.t.r.R.uX8X8X1X8X4X6X6X7X2X,X,X,X,X,X,X,X,X,X;X,X;X;X;X;X.X;X;XXX,X.X.XOX.X.X.XOXXXOX",
",X;X;X;X;X;XXXXX+XXXXX+X+XXX.X+X{.XX@X;X;X;X2X2X<X4XyXuXyXuXyX4XyX0XyXyXyX4XrX8X8X4X8X8XaXqX%Xl.t.t.O.[ n n n r r l.kX8XrXaX8XuXyX8X1X<X2X,X,X,X,X,XOX+X;X;XXX;XXXXX;X.X.X;X.X.X.XOX.X.XOX.XXXXX",
";X2X,X2X,X2X1X<X,X,X,X;X,X;X;XXX|.;XoX@X;X;X;X2X>X4XyXiXpXuXuXuXuXuXuXaXuXuXyX8XaX4XkXfXW.C = q w ^ Q b v e v n v n r.6.}.kX2X8X1XyX6X6X7X,X;X;XXX,XXX;X,X.X,XXXXX@XXXXX.XXXXXXXOX.XOXOXOX.X.XOX",
";X;X2X2X1X1X1X1X1X1X1X1X,X,X;X;X:X;X;X;X@X;X:X<X1X4XyXuXuXjXiXkXuXuXkXiXpXuXiXaXaX8X$X1.r w $ w . & = w r X $ q q & v [ 1.i.}.8X1X8XyX1X6X1X,X2X,X;X,X;XOX+XXXXXXXXXXXXXXXXX.XXXOX.X].]..X.X.X(.",
";X;X;X,X2X<X1X9XyX1X1X1X1X1X2X2X:X<X1X:X2X>X2X>X1X4X0XyXuXuXkXkXjXkXiXpXkXkXuXuX8X2Xr.& % $ $ #     .   + +   X X q b b [ r.r.+X1X1X1X6X4X1X1X<X,X;X;X+XXXXXXXXX.XXXXX.X.XXX.X.X.X.X(..X(.].(.(.",
";X;X;X;X,X1X1X1X9XrX0X6X1X1X4X8X9X1X9X<X1X1X1X1X1X1X0X0X0XuXqXuXkXiXkXiXpXjX8XaX8XN.& # w # . .     .   % r f t $ & , r b ^ [ r.;X2X1XyXyX8X1X2X;X;X,X.XXXXX.XXXXX.X.X.XXX.X.X.X].].].(.(.(.(.(.",
";X;X;X;X,X2X1X1X1X9X9X9X0X6X4X4X9X9X9X1X9X1X1X1X1X1X1X4X0XuXuX8XaXqXwXaXuXuX8X8X5X[ X = q X .       o 8 ! { { ] g @ O # $ O d b t.8X6X8XuX8X8X1X;X;X@XXX;XXX.X.X[.XX.XXX.X.X.X.X].(.(.(.(.E.E.E.",
";X;X;X;X;X,X2X>X<X1X1XrXrX0XrX0X9X9X0XqXyX0X0X0X4X0X4X4X4X4X4XqX0XkXkXaX8XuXuX5Xr.< @ $ q .     o 8 I ! { { x.x.^ t , # # w d g n %XaXaXuX8X6X,X,X;X,X;XXXXX;X.XXXXXXX.XXX.XXX.X].].(.(.E.(.E.E.",
"{.@X@XXX;X;X<X<X>X1X9X1X6X0X0XyXrXiXiXuXiXyXuXyXqX0X0X0X4X0X0X0XuXqX0XyXyXuX+Xr.r : X   X # X X 8 I / ' { { { O.] g 1 , + + , d r r.#XaXyXrX6X1X2X,X,X;X;X;X;X;X;XXXXXXXXX.X.X.X].].].(.(.(.(.(.",
";X;X;X;X;X;X<X1X9X9X9X0X0X9X0XyXiXyXiXiXiXiXiXiXiXiXuXuXuXuX0XuXuX4XyXyX4X4XR.b , +     % $ X > H P / ! ] ] ' ' ! p : & & # O & < r l.pXyX6XtX4X2X2X,X;X;X;XXX;XXX;XXXXXXX.X.X.X.X.X.X].(.(.(.(.",
",X,X2X1X<X1XyXyXyX0X0X9XyXyXyXyXyXqXiXiXiXiXgXiXpXgXpXgXpXiXiXiXuXuXyX8XuX<Xl.v r O   X # X o 9 H ! / ' { ] ! ( P a , + $ $ + . @ , i.pX8XyXyX4X2X<X,X,X;X,XXX;X,XXXXXXXXXXX.XXX.X].].].].(.(.(.",
"1X1X1X1X1X0X0XyXyXyXyXyXyXiXiXiXuXuXuXuXiXiXiXpXgXjXgXjXgXkXiXdXuXjXaX4XuX6X+Xb t     O X X - S Y ' { #.*.#.' ] H < &   + $ +   $ , 1.pXyXyX6X1X,X<X,X,X,X,XXXXX;XXXXX.XXX.XXX.X.X.X.X]..X].].].",
"1X1X1X6X9X9X1X9XyXyXyXyXuXpXpXiXiXiXiXpXiXgXgXjXjXgXgXgXkXkXiXkXkXuXuXuXqXaX2Xv e #   w i X 8 I Y Q I 4 t ~ *.#.Y 3 o + X $ $ # $ , r.pX4X8X7X6X,X<X,X;X;XXXXXXXXXXXXXXX.XXX.X.X.X.X.X.X].]..X].",
"1X1X1X9XrX9X0X9X9X9X0XyXuXiXiXjXpXlXgXgXjXxXxXjXlXlXjXjXjXjXgXkXkXuXpXuXuXtXuX[ , # . $ v o 4 H P 4 - > 4 5 P ' ( G - $ O   X   + * t.pX0X1X7X,X,X,XOX;XoXXX;X;XXXXXXXXXXX.X.XXX.X.X.X]..X].].].",
"<X9X1X9XyXyXyX0X0XyXyXyXyXqXuXpXgXpXlXpXlXlXpXlXgXjXgXjXjXgXjXlXjXjXjXiXpXaXkXl.p i , o X % > y S 5 ; 4 y v 4 I ' ( 9 o % o % o   i >XaXuX6X7X<XOXOX,XOXXX.X.XXXOX.XOX.X.XOX(.OX.X.X.X.X(.(.(.(.",
"<X:X<X1X9X9X9XyXyXyXuXuXiXiXiXiXpXgXgXpXpXgXiXiXkXgXgXjXgXgXjXkXkXuXkXpXpXiXjX:XV V n w w t < , / G - e w @ t H ' | / < X @ < % X r.jXaX4X8X6X<X7X7X,XOXXXXX.X.X.X.X.X.X.X(.OX.X.X.X(.(.(.(.(.(.",
"9X1X9X9X9X0XyXyXaXuXiXiXiXiXpXiXiXpXgXjXiXxXlXiXjXjXjXgXjXjXgXjXjXuXiXpXaXaXaXjXR.1.v e t.[ $ q c.' G 7 y y / &.$.+.' ~ - - o - = +XpX8X6X6X4X7X7X,X,XOX.X.X[..X.X.X.X.X.X(..X(.(..X(.(.(.(.E.(.",
"9X9XrXyXyXyXaXiXiXpXiXpXiXiXpXiXqXiXiXgXlXiXlXxXxXlXlXjXjXlXlXlXjXjXjXpXaXxXaXxXaXxX+Xt.$XB.y { C.{ ( Y P ) *.&.+.' ( T G 8 ; S [ pX6XyX7XtX4X7X7X7X7X,X;X;XXXXXOX.X.X.XOX.X.X(..X(.(.(.(.(.(.E.",
"9XrX0XyX0XyXyXaXqXiXiXiXgXpXiXiXaXiXiXiXpXlXpXlXgXgXgXgXiXkXkXiXuXiXpXaXpXpXjXpXxXaXuXiXNXN.{ n.m.*.! } { } _ ! Y Y E Y G H } Q l.xXrXyX6X7X>X7X6X2X,X,X,X,XXX;XOXOX.X.X.X.X(..X(.(.(.(.(.(.E.(.",
"0X9XyXyXyX9X0XyXaXaXiXiXiXpXiXuXiXiXiXiXiXiXuXiXiXiXiXiXiXiXqXuX0XqXiXpXpXiXpXpXpXpXpXlXcXB.x.Q I { ] ! *.} Y K H Y / _ G ; 4 r 2XaXrXrX8X1X<X7X,X7X,X7X,X,X,X;XOX.XOX.XOX.XOX(.(.(.(.(.(.(.E.(.",
"9X9X0X0XyXyXaXuXaXiXaXiXiXaXaXuXiXiXqXiXqXiXiXqXuXuXuXiXiXuXuXqX0XaXaXpXjXpXjXsXsXsXzXzXBX$Xx.S ; - I } } } ! K Y K ) ` I 4 X q 8XqX6X6X8X6X<X6X7X,X7X,X;X;X,X,XOXOX.X.X.X]..X.X.X(.(.(.(.E.(.E.",
"0X0X1X0X9X0X9X9XyX0X0XaXiXiXiXuXiXiXaXiXiXiXlXxXpXiXuXyXqXqXyX0XyXyXaXiXxXxXpXxXgXxXcXcXcXfXM.t.Q y ] &.} ( U U P E ( ( / / t b pXpXaXyX4XrXtX6X7X,X,XXXXXXXXXXX.X.XOX.X.X.X.X.X.X.X(..X(.(.E.E.",
"zXhXgXkXuXqXuXyXuXuXyXyXyXyXyXyX9XiXyXiXgXjXxXxXjXjXuXuXuXqX0X4X0X0XiXiXpXsXxXsXpXsXjXcXcXVXD.*.] ! Y K / R U H Y Y E / / } T v vXjXaXpXyXyX6X0X6X7X,X,XoXoXXXoXOXXXXX.XXX.X].].].].(.(.(.E.E.E.",
"nXzXNXzXcXkXkXhXkXkXkXqXdX8XyXuXiXiXiXiXiXuXiXqXiXuXuXuXqXuXuXuXpXlXlXxXpXpXpXpXxXxXjXjXxXvXN./ I ; ; > 3 U F D U U K K Y ' ^ [ bXyXyXaX8X6XyX4XrX7X,XOXOXoXoXoXXXXXXX.X.X.X].].].].(.(.(.(.E.(.",
"hXhXhXzXnXhXhXnXnXnXhXhXhXzXcXNXcXcXlXgXkXpXuXqXuXuX0XqXuXuXuXiXiXpXiXiXjXxXlXxXpXpXpXjXpXvX%X[ ! y 5 5 5 Z H F H H A D R ' %.@XsXaXaXyX6XrXyXrX6X7XOXOXOXoXXXoXXXXXXXoXXXXXXX.X.X.X[.].(.(.(.(.",
"kXdXiXkXkXhXhXzXZXNXMXMXCXCXVXVXVXVXBXBXBXNXNXcXcXlXlXhXlXlXhXhXiXiXiXiXgXxXcXvXxXsXpXjXxXvXVX%XQ ; 5 Z Z Z F A Z 0 5 A / } c.gXiXtXrX<X7X<X7X7X7X<X7X<XOXoXoXXX,X.XXXXXOXXXXXXXXXoXoXXX.X.X.X.X",
"4X3X>X>X4XqXkXgXnXnXVXVXMXVXMXMXVXCXVXVXVXVXVXVXMXVXVXVXVXVXMXVXBXVXNXcXxXxXbXsXpXpXlXcXBXvXcXfXz.Q Q S 9 Z A Z 3 3 Z F ( ' c.$XxXyX6XtXrX9XrX7X1X1X7X,X;X;XoXXX@X{.{.{.{.XX{.{.{.{.[.{.{.[.XX'.",
"kX0X4X>X>XqXdXhXZXnXMXMXMXVXVXVXMXMXVXMXVXMXVXMXMXVXMXVXVXVXVXVXVXVXVXVXBXBXvXvXvXBXBXBXVXzXBXNXb.! Y H D Z 0 ; ; ; Z U R ' &.S.zXvXxXsXpXxXxXjXsXpXpXaXaXaXaX0XuXyXyX0X4X4X4X1X1X>X1X<X>X<X2X<X",
"mXmXnXhXhXnXNXmXnXnXmXnXnXmXMXCXVXCXVXVXVXMXVXMXMXVXMXVXMXVXMXVXMXVXVXVXVXVXVXVXVXVXVXVXVXVXVXVXM.I Z Z 9 0 ; ; ; 0 Z U W #.&.c.&XhXBXxXxXvXcXcXbXvXvXxXjXjXjXgXjXjXgXkXiXkXiXwXwXiXuXuXuXuXqXyX",
"ZXmXmXmXmXMXmXmXMXCXnXmXmXnXmXmXNXVXCXNXNXNXVXCXVXMXVXMXVXVXVXMXVXVXVXVXVXVXVXVXVXVXVXVXVXVXVXVXBXfXA.{ 9 0 0 3 ; Z Z U W $.c.m.n.&XZXBXvXcXvXxXlXcXcXcXcXjXjXgXuXkXdXgXgXgXkXkXiXpXkXkXuXkXiXiX",
"nXnXmXMXmXMXmXmXmXmXmXmXmXmXNXBXmXmXCXCXMXCXMXVXMXVXMXVXVXMXMXMXVXVXVXVXVXVXVXVXVXVXVXVXVXVXVXVXVXVXVXMXO.K D u u Z F U | =.-.m.n.F.D.AXBXBXNXNXNXcXxXjXjXcXhXcXgXgXgXgXgXgXgXgXiXlXlXlXwXlXgXgX",
"kXkXhXhXnXzXNXNXzXzXnXNXCXmXNXnXBXVXBXBXNXBXBXVXMXVXMXMXMXVXVXMXVXVXVXVXVXVXVXVXVXVXVXVXVXVXVXVXVXVXVXVX*X' R K F D F R +.=.c.S.S.F.D.D.=XVXVXVXBXvXcXjXcXxXjXjXcXjXgXiXgXkXwXiXwXiXiXiXqXwXwXwX",
"xXxXjXlXgXhXgXhXzXcXnXnXCXCXVXMXNXNXBXNXcXNXBXCXBXBXNXmXVXBXMXBXVXMXVXVXVXVXVXVXVXVXVXVXVXVXVXVXVXVXVXVXVXb.) R R F R  . .m.G.*X*X=XAX*X&X=XNXcXcXxXjXxXhXlXcXkXkXgXwXdXwXdXkXgXiXwXiXiXiXiXwXwX",
"lXcXlXcXcXNXNXNXNXCXNXmXmXmXmXCXMXMXMXVXCXVXMXVXVXVXVXVXVXVXVXVXVXVXVXVXVXVXVXVXVXVXVXVXVXVXVXVXVXVXVXVXMXZXO.` W  .$.-.G.G.F.F.*X*X*XAX*X&X=XcXvXcXcXNXlXgXcXhXpXpXpXpXpXaXyXiXaXiXiXiXiXiXiXiX",
"jXcXgXcXvXvXBXBXCXMXVXNXCXMXBXMXCXCXMXMXCXMXMXMXVXVXVXVXVXVXMXMXVXMXVXVXVXVXVXVXVXVXVXVXVXVXVXVXVXVXVXVXVXVXZ.%.=.=.n.c.G.F.*XF.F.V.n.S.&X&XZ.AXBXVXBXBXNXzXvXzXzXnXnXvXzXzXlXlXlXlXZXZXZXzXzXzX",
"jXpXiXiXiXiXgXgXjXjXcXxXbXbXcXcXzXNXBXBXBXBXBXCXBXCXCXCXMXCXVXVXCXVXVXVXVXVXVXVXVXVXVXVXVXVXVXVXVXVXBXVXVXVX-Xv.b.Z.v.v.S.S.D.F.F.V.V.n.n.C.Z.Z.NXVXBXvXCXvXBXBXCXnXzXnXnXzXzXnXlXlXlXdXdXdXzXzX",
"iXyXaXyXaXqXaXiXaXuXiXuXwXwX0XwXqXqXiXdXwXgXdXgXfXhXhXhXhXhXdXhXdXhXhXzXzXzXNXBXNXNXvXzXcXzXzXlXxXlXzXcXlX-XZ.M.F.D.S.S.b.-.c.S.V.D.V.n.V.C.C.M.=XhXwXiXiXqXqX0X9X9X9XOX:X|.|.|.`.|.`.`.`.).).[.",
"yXqX0XqXaXwXwXqXqXuXwXkXiXdXwXwXpXkXkXkXkXkXdXdXgXdXgXhXgXhXdXgXgXgXgXgXcXgXcXcXcXcXzXcXcXlXjXgXpXiXwXaXbX$XV.Z.=XA.n.-.$.@.&.=.x.b.V.V.n.n.n.v.%X5X0X9XqX>X>X<X#X#X#X@X9X9X|. X|.[.[.[.).`.`.).",
"9XeX9X:X9X9X9XeX9XeXeX0XeXeX0X0XeXeXqXqXwXqXqXdXeXdXdXdXkXdXdXdXdXdXdXdXgXgXgXgXgXzXzXhXlXlXzXgXdXiXpXiXdX=X%XA.A.n.b.$.~ ~ ^ ^ ..O.x.m.n.v.v.v.c.$XaX0X9X#X>X2X@X|.:X:X@X X X|.[.[./.!.)././.).",
"0X9XeX9XeXeX0X9X0X0X0X0XqXyXwXwXgXiXqXeXqXdXwXdXdXgXgXdXdXdXgXdXdXdXzXzXhXcXzXzXNXvXcXcXBXcXNXgXxXxXlXzXCX-XZ.&XA.m.%. .^ L v ^ ` o.^ v.c.&.&.x.b.B.9X1X0XeXeX>X9XeX>X>X9X:XoX X|.|.[.`.`.[.[.[.",
"0XaX9X0XyXeX0XyX0XeX0XqXwXiXwXlXgXiXwXqXdXqXdXdXlXdXzXdXkXhXhXdXdXhXzXzXzXnXzXzXNXNXNXNXcXcXzXlXiXlXzXzXfXA.A.D.A.-. .T T ) T T '  .` %.%.$.#.O.%.b.#X>X0X>XeXeX>X>XeX:X9X>X:X@X|.oX|.|.{.{.[.).",
"yX0X0X0XyXyXeXqX0X0X0XeXqXqXiXwXwXwXqXdXqXwXdXwXfXhXhXhXhXzXzXhXhXhXnXzXzXNXBXBXNXBXBXNXzXgXlXlXdXcXgXdXA.l.Z.G.b.=.O. . .W +.+.+.@.$.@.+.#.#.+.%.$.%X9X3X>X9XeX>X9X9X>X:X:XeX9X:X X|.[.`.`./.`.",
"aX0XeX0XqXqXaXiXiXwX0XqXqXuXkXgXwXwXqXwXdXdXdXdXdXdXZXzXzXzXZXdXgXzXlXNXNXzXzXNXzXBXBXNXlXdXlXzXNXiXcX%XB.M.v.n.O.$...) |  ._ W R _ _ | +. .+. .o.o.B.rX X|.|.@X X@X|. X|.#X X X:X|.|.[.[./.`.[.",
"qX0X9X9X0X0X0XwXyX0XqX0XqXqXwXiXwXwXdXgXkXkXgXdXdXhXzXzXzXzXzXhXdXdXzXzXlXzXdXzXNXzXzXNXzXlXcXzXlXcX$XZ.V.c.c.c.=. .W ) W s s T J ~ a T T _ _ ' ` ' z.rX9X9X:XOX:XeX#X9X9X9X9X9X:X:X:X:X|.{.{.[.",
"yX0X0X9XeX>X9X9XeXeXeX0X0X3X3X4XeXqXdXgXdXkXdXdXdXlXlXdXdXhXdXlXdXhXdXlXgXdXkXzXzXzXzXcXvXlXzXzXvXfXD.S.n.-.%.=.O.^ ^ f ) T T R R / L K R W | +. .' o.oX|.@X|.`.'.|.9X9X|.@X@X:X:X;X|.[.[.[.[.|.",
"|.:X:X>X:X>X>XeXyX0XqXeX9XeX0XqX3XeXeXqXeXeXwXdXdXdXdXfXdXdXdXwXdXzXzXBXzXhXkXgXgXlXlXlXgXdXgXgXlX&XS.n.c.&.)  .^ = = = K W W U U R U E R E _ _ _ ` ] ~.[. X9X:XOX@X|.|.9X@X9X|.|.|.[./.).!./.U.",
"'.'.|.@X>X4X4X1X0XyXqX9X#XeXqXiXqXqXeXeXeXeXqXqXwXqXfXwXdXdXdXwXeXwXzXlXlXzXlXdXdXzXZXlXiXdXqXaX*XD.n.c.=.+./ P ^ = = = s E K J D Y K U U s ) W _ / P R.OXoX[.`.[.[.[.[.|.oX:X<XoXoX[.`.].'.XXXX",
"9X9X:X:X2X@X@X@X#X+X X#X@X X X9X#X+X@X#X>XeX>XeXqXdXdXdXdXzXnXzXzXdXwXdXdXzXzXnXvXNXcXzXcXzXhXgXD.D.v.=.+.) P 9 ^ = = = s J J D a K K K K L J R E ) a l.).!.).!./.).!.!.Q.Q._.[.`././.(.E.E.E.E.",
":X:X:X:X;X;X@X@X@X#X#X#X#X@X'.^.~.Q.~.'. X|.`.^.^.@X#X#X#X#X>X#X#X#X>XeXwXeXeXgXuXqXeXqXlXlXkX=XS.v.c.%...T K > J d = = J s u u 1 u D G L T a J R / u l.`.`.[.{./.`.`.`.).!.!.K.U.K.L.L.f.H.K.K.",
"_._.^._._._._.'.'.@X9X9X>X>X9X>X{.{.@X|.|.@X|.'.^.`.`.'. X X^.~._.~.R.~.'.}.'.'.}.~.^.@X3X9X$XD.v.c.%. .) P J 3 u ..= i R a p 6 : a F J J Y P T ) / 8 l.|.{.oX X@X;X;X;X{.[.`.`.K.H.K.L.d.d.L.L.",
"j.I.T.Y.Y._._.Y.Y.P.P.Y.j.j.j.!.Y.^.'.'.^.'.^.T.j.Q.^. X#X X^.^.`.`.^.'.@X'.!.j.P.T.Y.Q.Y.Y.%Xv.c.%. .) P J u 6 2 +.T R W J p 1 , 8 J G J K f 8 L L i _./././.[./.~./.!.U.K.U.K.U.K.K.L.d.L.L.L.",
"_.}.'.[.]._.P.P.f.p.p.s.h.a.p.h.j.j.I.I.j.j.Q.T.j.j.!.j.j.j.I.!.~.^.^.^.`.^.^.`.}.]._.Q.Y._.N.b.%.o.) P G a 7 6 :  . . .R D 1 1 1 < K R Y R J 6 2 p n OX).).).!.{.{.|.|.OX.X.X[.].(.E.).E.K.K.K.",
"T.Y.T.I.P.g.g.g.j.g.J.P.T.~.`.'.U.j.I.U.T.I.I.I.~.'.+X+X#X#X@X#X@X'.`.'.+X|.{.|. X|._.^.}.;Xl.%.#.) L u 7 6 > > * T ~ W R J 1 2 e 2 s U R R G p & w B e.5.0.0.0.a.a.d.k.L.L.L.L.K.L.J.K.K.E.K.K.",
"Y.I.I.P.g.h.g.P.T.Y.~.`.~.~.Q.j.J.h.h.j.P.T././.^.#XeXeX3X X^.^.#XeXdXeX#XeX3X#X#X@X+X#X'.R.t.]  .P s u 6 < 1 > : p T R T P i p e 2 t Y R P G a q r r.e.a.y.0.0.e.w.w.8.4.2.2.2.4.4.4.2.4.4.e.e.",
"{.{.{.;X;X'.E.R.Y._.^.+X#X X`.^.^.~.~.^.^.'.#X XT.Q.I.j.j.j.j.Q.`.~.!.j.g.j.I.!.!.^.l.!.K.^.[ 8 T s u u > 6 6 u > L f L P L p p p 2 a Y P K a 6 , C L.0.d.0.0.d.H.H.f.d.d.0.0.0.0.d.L.L.d.0.0.0.",
"i.h.P.J.g.i.i.u.y.u.u.p.g.j.h.f.f.p.p.p.u.i.p.h.a.u.8.9.a.a.y.a.a.9.9.9.7.3.7.u.j.!.!.h.f.`.l.< u u < > 6 6 u s a J L _ a s d q e e G U K H 8 t > V [.).!.!.[.oX;X;XoX{././.).].E.K.L.d.y.w.0.0.",
"h.h.h.i.u.i.i.s.p.s.g.~.^.Y.j.T.j.s.9.5.4.5.9.a.h.h.d.f.f.d.9.8.8.8.8.5.4.q.a.d.j.j.I.J.T.T.~.^ > 6 > 1 u s P T T s K W s s 1 w 2 e p a G G 6 < * V K.L.K.!.).!.Y.!.U.K.H.H.H.K.U.U.U.K.K.U.K.K.",
"u.u.9.u.i.s.s.H.d.u.9.s.j.g.h.p.u.p.h.g.j.!.I.j.h.a.a.d.0.5.4.4.4.8.q.5.5.q.a.a.9.q.a.h.J.f.f.X.a p u u J P ~ R T s ) J i p 2 p 8 2 2 > 6 9 > 2 * B 2.<.2.2.2.2.4.8.w.0.0.0.0.0.a.s.d.d.d.L.d.f.",
"<.<.<.6.<.r.<.<.6.6.3.3.7.7.7.9.u.h.g.j.J.J.y.6.q.9.0.q.8.q.a.d.a.a.9.9.9.8.9.u.i.h.l.h.a.j.k.1.L s s T ~ ) ) / J G R U P J f u 7 1 8 u 9 9 : 2 * C c c B m m B M M M M M M M M >.>.l >.M >.>.>.",
"3.3.<.,.,.,.,.>.N M m M ,.6.9.7.2.2.2.3.4.8.4.2.2.5.8.<.:.4.q.0.0.9.5.5.9.u.h.f.!.Q.j.a.d.k.k.X.~ ~ )  . . . ./ L a K R L p 1 u 6 > : 1 6 3 * * w C x x l l c l c l l x c c c c x x x c x m x m ",
"M m N B N m m m m m M >.N N >.M >.>.;.,.<.<.2.3.5.<.,.<.2.N :.N 2.,.;.;.:.3.4.3.4.3.3.3.4.2.7.....o. . . .) ~ J p 1 J ) J p e 2 6 : + + : 6 * + + h x x z j z z z z x x c c c x x x x x x x x x ",
"m m m C h m M ,.6.9.u.9.<.;.;.;.;.;.2.5.3.3.9.y.y.y.0.5.4.5.9.9.9.3.2.,.,.:.;.;.N N N :.N B 7.O.O.%...~ T J a u 6 6 a E a 2 u , : @ + + > 4 + + # h j j h k j h j k j j z j j z z j j z k j z h "
};
