/* XPM */
static char *_2394_ee83fe9ec9675860b93d3c6d24c6e3b3ecc77f03f51e5414b43a560dd2c3dea8[] = {
/* columns rows colors chars-per-pixel */
"64 64 208 2 ",
"   c #1F2B2B",
".  c #1D2926",
"X  c #212D2D",
"o  c #24312E",
"O  c #253131",
"+  c #293534",
"@  c #2B3A35",
"#  c #2D3A39",
"$  c #313D3C",
"%  c #32413B",
"&  c #354443",
"*  c #384646",
"=  c #354A46",
"-  c #3A4A45",
";  c #354649",
":  c #394748",
">  c #364B4A",
",  c #3B4D4A",
"<  c #3C514E",
"1  c #37504D",
"2  c #3A4F50",
"3  c #3D5351",
"4  c #3F5855",
"5  c #404F4A",
"6  c #42524E",
"7  c #435553",
"8  c #495753",
"9  c #455956",
"0  c #495B56",
"q  c #465B59",
"w  c #4A5D5A",
"e  c #545F59",
"r  c #4D615C",
"t  c #52635D",
"y  c #56635A",
"u  c #4F6361",
"i  c #546461",
"p  c #5B6C64",
"a  c #5E6F69",
"s  c #5E7269",
"d  c #636E66",
"f  c #62726A",
"g  c #6A746B",
"h  c #6B7C73",
"j  c #667771",
"k  c #737C73",
"l  c #708076",
"z  c #75847B",
"x  c #79857C",
"c  c #7A897F",
"v  c #6F8078",
"b  c #81867F",
"n  c #788780",
"m  c #7C8B83",
"M  c #778681",
"N  c #818D85",
"B  c #808F88",
"V  c #849187",
"C  c #869389",
"Z  c #8A958B",
"A  c #8E9A8E",
"S  c #899186",
"D  c #949C8F",
"F  c #8E9B91",
"G  c #939E91",
"H  c #9C9F96",
"J  c #96A296",
"K  c #99A095",
"L  c #9DA59A",
"P  c #9AA69B",
"I  c #A2A597",
"U  c #A2A59A",
"Y  c #A4A99C",
"T  c #ACAA9D",
"R  c #AAA597",
"E  c #B3AC9C",
"W  c #BBAD9C",
"Q  c #B7A894",
"!  c #B5AA97",
"~  c #9DABAB",
"^  c #99A6A6",
"/  c #9FB1B1",
"(  c #A5ACA4",
")  c #ACADA2",
"_  c #A3AEAC",
"`  c #A9AEA8",
"'  c #B1AFA2",
"]  c #AEB0A4",
"[  c #A5B0AE",
"{  c #ACB3AC",
"}  c #ABB5AA",
"|  c #B4B2A4",
" . c #BBB4A4",
".. c #B3B4AA",
"X. c #BBB7AA",
"o. c #B3B9AE",
"O. c #BCBAAD",
"+. c #A4B4B4",
"@. c #ACB9B6",
"#. c #A5B7B9",
"$. c #ABB7B9",
"%. c #A7B9BA",
"&. c #ACBBBB",
"*. c #ABB4B1",
"=. c #B2B7B1",
"-. c #B4BBB5",
";. c #BCBDB3",
":. c #B3BCBD",
">. c #B8BFBA",
",. c #C2AC95",
"<. c #C3B19D",
"1. c #CBB59E",
"2. c #C3B6A4",
"3. c #C6B9A6",
"4. c #CCBBA4",
"5. c #C3BCAC",
"6. c #CBBDAC",
"7. c #C8B6A3",
"8. c #D3BBA4",
"9. c #DABEA4",
"0. c #D2BFAA",
"q. c #D9BFA8",
"w. c #C3BEB1",
"e. c #C8BFB1",
"r. c #B6C1BE",
"t. c #BCC1BC",
"y. c #CFC0AD",
"u. c #DEC1A6",
"i. c #D3C1AD",
"p. c #DCC4AC",
"a. c #C6C1B4",
"s. c #CBC2B4",
"d. c #C3C3BB",
"f. c #CCC6BA",
"g. c #CDC9BE",
"h. c #D3C4B3",
"j. c #DCC7B1",
"k. c #DEC9B3",
"l. c #D3C9BC",
"z. c #DCCDBC",
"x. c #D1C7BA",
"c. c #E4C2A4",
"v. c #EBC6A5",
"b. c #EFC8A6",
"n. c #E3C5AB",
"m. c #E9C7AA",
"M. c #E4C8AE",
"N. c #ECCAAB",
"B. c #F1CAA6",
"V. c #F2CDAB",
"C. c #F6D0AF",
"Z. c #E3CBB4",
"A. c #ECCDB3",
"S. c #E3CFB9",
"D. c #E9CFB8",
"F. c #F1CFB1",
"G. c #EDD1B5",
"H. c #E5D1BC",
"J. c #ECD3BB",
"K. c #F5D2B5",
"L. c #F9D4B6",
"P. c #F5D6BB",
"I. c #F9D6BA",
"U. c #F5D8BD",
"Y. c #FBD9BD",
"T. c #BABEC2",
"R. c #B5BFC0",
"E. c #B7C1C1",
"W. c #BDC4C2",
"Q. c #C2C6C4",
"!. c #CAC7C0",
"~. c #C6CAC6",
"^. c #CBCAC4",
"/. c #C6CAC9",
"(. c #CDCDCA",
"). c #C4C5C8",
"_. c #D4CDC3",
"`. c #D9CFC3",
"'. c #D2CECA",
"]. c #D8CFC8",
"[. c #DDD1C6",
"{. c #D5D2CC",
"}. c #DBD4CC",
"|. c #DFD8CE",
" X c #D4D0C7",
".X c #DCD6D1",
"XX c #DFD8D1",
"oX c #E3D3C3",
"OX c #EAD6C3",
"+X c #EFD9C4",
"@X c #E2D6CC",
"#X c #E4D9CE",
"$X c #ECDCCD",
"%X c #EAD7C8",
"&X c #F3DCC5",
"*X c #FCDDC3",
"=X c #F3DFCA",
"-X c #FEDFC8",
";X c #F1D7C0",
":X c #E4DBD2",
">X c #EBDDD1",
",X c #E3DBD8",
"<X c #FAE0C6",
"1X c #F6E1CD",
"2X c #FDE3CC",
"3X c #EEE0D3",
"4X c #F2E1D3",
"5X c #FCE5D1",
/* pixels */
"^ ^ ^ ^ ^ ~ ~ ~ ~ ~ ~ ~ _ / ~ / +.~ / +.+./ +.+.+.+.#.#.%.%.%.%.%.%./ %.%./ / E.#.#.%./ %.%.#.#.%./ R.%.%.%.r.%.%.r.&.R.$.R.R.T.",
"^ ^ ~ _ _ _ _ _ _ _ _ _ *.[ [ *.*.+.+.+.#.%.#.@.#.#.%.@.%.%.%.%.r.&.r.r.r.r.E.%.r.&.&.E.R.E.E.E.R.%.R.R.E.E.E.r.r.r.R.R.T.T.T.T.",
"~ ( _ ( ` [ [ [ *.{ *.*.*.*.*.$.@.@.$.-.-.-.:.@.:.:.:.r.:.:.E.:.r.r.r.W.E.E.E.E.E.E.E.E.E.E.E.E.E.E.R.R.E.E.E.E.E.E.W.W.).).).).",
"( ` ` { { { { *.*.*.{ =.*.=.=.=.-.-.-.-.r.-.r.t.r.r.t.t.W.W.W.W.t.t.W.t.W.W.E.E.Q.Q.W.Q.E.W.W.W.W.W.E.E.E.~././.E.W././.)././.).",
"] ........X.=.X.o.O.o.;.O.>.;.;.;.>.;.;.>.d.w.d.d.d.d.Q.Q.d.!.!.g.~.g.~.~.~.g.~.~.~.~./././././.W.(.W.(.W.(./././.).(.(.(.(.'.(.",
"....=.O.X.O.O.;.O.O.;.;.w.e.w.e.a.d.d.f.f.d.!.d.g.f.!.!.^.^.^.^.~.g.~.g.(.^. X^. X'. X X X'.'.(.(.(.(.(.(.(.(.(.'.'.'.'.'.{.{.{.",
"X.X.O.O.;.;.w.;.w.w.w.w.a.a.d.d.f.f.f.f.g.!.^._.^.^._._._._._. X X^. X X X X{.{.{.{.{.{.{.{.{.{..X{.{.{..X{.{.{..X{.{..X{..X.X.X",
"5.5.5.w.e.e.e.w.a.a.s.d.f.f.g.l.^.l.^.l._._._._._. X_. X].]. X X X{. X X|.{.{.|.{..X{.}..X{..X.X.X.X.X.X.X.X.X.X}..X}..X.X.X.X.X",
"5.w.w.e.e.e.e.e.s.f.f.f.x.x.x.l.l.^.l.l._._._._.]._.].]. X|.}.{.|. X|. X|.|.|.XX.XXXXXXX.X,X.X.XXX|..X@X.X@X@X@X@X@X@X:X:X:X:X:X",
"5.w.e.e.e.e.f.e.s.s.s.f.x.f.x.l.l._._._._._.`._.].[.{.}.[. X|.[.|.|.|.|.|.|.XXXX,XXX,X,X,X.X,X,X:X#X:X#X:X:X:X@X:X,X:X:X$X:X>X:X",
"6.w.e.e.e.f.e.x.f.f.x.h.x.l.l.l._.l._.`.`.`.`.[.{.[.[.[.[.|.|.}.#X|.|.:X|.:X:X:X:X:XXX:XXX3XXX3X:X>X>X:X>X>X,X>X:X:X$X:X>X,X$X>X",
"6.6.0.e.h.e.h.h.x.j.x.z.z.z.z.`.z.[.z.[.[.oX[.[.[.oX[.@X[.|.oX|.|.|.|.#X#X|.:X#X:X:XXX3X3XXX3X:X:X>X>X:X>X>X$X>X>X>X>X>X>X>X>X>X",
"0.0.0.0.h.h.j.h.j.k.k.k.S.S.S.`.[.H.[.oXoXoX@XoXoXoXoX%X|.+X|.#X#X#X@X#X$X#X#X>X3X:X$X>X>X3X3X3X>X$X$X$X>X>X>X>X>X>X>X>X>X>X>X4X",
"0.q.q.q.h.q.n.j.k.k.S.Z.Z.S.D.S.oXH.H.H.H.OXOXoXOXoXoX%X+X#X+X$X%X+X$X$X$X$X$X>X>X>X3X$X>X3X3X3X3X3X4X>X4X4X>X4X>X>X4X>X>X>X4X>X",
"q.q.q.j.n.M.Z.M.Z.Z.Z.Z.D.D.D.D.H.H.OXH.OXOXOXJ.OXOX+X+X+X+X+X+X$X$X$X$X$X$X$X=X3X$X3X$X3X3X1X3X4X4X4X4X4X4X4X4X4X4X4X4X4X4X4X>X",
"u.u.q.n.n.n.M.n.A.Z.A.A.A.D.D.D.J.H.J.OXJ.J.+XJ.+XOX+X+X+X+X=X+X+X&X<X+X&X<X=X=X1X1X1X1X1X1X1X1X4X4X4X4X4X4X4X4X4X4X4X4X3X4X4X4X",
"c.n.c.n.v.n.m.A.A.A.A.A.A.;XF.;X;XD.D.;XJ.;X;X;XU.&XU.&X&X+X=X=X$X<X$X<X&X1X=X1X5X=X5X=X-X=X=X5X5X4X5X4X5X5X5X4X1X5X5X5X4X4X1X1X",
"v.v.N.N.V.V.F.F.F.K.F.F.F.;XL.I.;X;X;X;X;X;X&X;XU.<X&X&X&X&X<X<X<X<X<X<X1X2X<X2X-X=X-X2X5X5X5X5X5X5X5X2X5X5X5X5X5X5X5X5X5X5X5X5X",
"b.b.V.V.V.C.F.F.K.K.L.L.;XL.;X;X;XI.;XP.*X&X*X&XY.<X<X<X<X<X<X5X1X<X1X5X2X2X5X2X5X5X5X5X5X5X5X5X5X5X5X5X5X5X5X5X5X5X5X5X5X5X5X5X",
"b.b.b.V.V.F.C.C.K.L.L.;XL.;XI.;X;X*X*X*X*X*X*X*X<X<X<X<X<X<X<X<X<X5X2X2X2X2X2X2X5X2X5X5X5X5X5X5X5X5X5X5X5X5X5X5X5X5X5X5X5X5X5X5X",
"B.b.b.V.V.C.C.C.L.C.L.L.L.I.I.I.Y.Y.Y.Y.I.Y.*XY.Y.<XY.Y.<X<X<X<X<X<X<X2X2X2X2X2X2X2X2X5X5X5X2X5X5X5X2X5X2X5X2X5X5X2X2X2X2X5X2X5X",
"B.b.B.V.C.C.C.C.C.L.L.L.L.I.I.I.L.L.Y.Y.I.*XY.*XY.<XY.<XY.<XY.<X<X<X<X<X<X*X<X2X2X2X2X2X2X5X2X5X5X5X2X2X5X2X2X2X5X5X2X2X2X2X2X2X",
"v.b.b.b.V.F.C.V.F.K.K.L.L.L.L.L.L.I.L.L.L.Y.I.Y.Y.Y.Y.Y.Y.Y.Y.<X*X<X<X<X*X-X-X-X-X-X-X-X-X-X-X-X2X2X2X2X2X2X2X2X2X2X2X2X2X<X2X<X",
"v.c.v.m.m.N.V.V.F.F.F.F.F.L.L.L.L.L.L.L.L.I.L.L.L.L.Y.Y.Y.Y.Y.U.Y.Y.Y.*X*XY.*X*X*X*X*X*X-X*X-X*X2X<X-X*X2X-X-X*X-X<X-X-X<X<X<X<X",
"c.c.c.c.m.m.m.N.A.F.F.A.F.A.A.K.C.V.K.K.K.U.K.G.C.U.U.K.U.G.U.U.Y.L.K.K.Y.Y.Y.U.*X*X*X*XI.*X*XI.*XI.*XI.*XY.*XY.*X*X*X*X*X*X*XI.",
"8.9.9.u.n.n.M.M.n.M.Z.m.A.A.D.D.G.A.G.G.G.V.G.G.G.G.G.G.G.J.U.U.K.K.P.U.U.K.K.U.P.P.P.P.P.*X;X*X;XI.*XU.I.P.U.P.I.I.U.U.P.I.;XI.",
",.,.,.1.1.1.1.4.8.8.8.9.q.j.q.j.M.n.p.k.p.p.p.p.k.k.k.k.S.H.H.G.Z.G.J.G.G.G.G.G.G.J.D.OXD.OXA.OXG.G.J.U.;X;X;XU.J.J.J.J.J.P.P.G.",
"Q Q Q Q W <.<.<.<.<.<.7.7.7.8.4.y.4.i.1.4.4.4.4.4.4.4.i.i.i.k.i.k.k.k.k.k.k.k.k.Z.Z.Z.Z.Z.M.Z.j.j.Z.Z.Z.S.J.H.J.J.J.J.J.D.oXD.D.",
"Q R ! W W  . .2.2. .2.2.2.3.3.5.<.2.2.2.4.3.4.a.y.4.4.t.4.y.4.y.y.y.y.y.y.4.y. .7.7.6.6.0.e.0.e.0.6.0.6.6.0.0.i.h.0.0.6.6.0.6.4.",
"R R R T E E E E  . . . .2.5.5.2.<.t.2.4.4.t.a.y.y.t.4.t.y.t.t.4. . .E E |  .E  .'  .|  .X.X.5.2.X.X. . . . .X.X.X. . . . .' E E ",
"H R R R T T | ' E | '  ...X.2.X.t. .t.t. .3.O. .o. . . .| ] ] ] T ] | ] E | | ] | | | .......... .....| .... .' ..' ' ) ' ' ' ' ",
"H R I R ) ) ) ] | ....X...X.X.;.E  .| | } ] Y ] I Y Y Y Y I I Y Y ] ]  .} } } o.*.....*.O.=.-.=.....=.....] ` ( ( U H H H L L L ",
"b D K L Y ) ] ........X.....| ) Y Y Y P J G G G D D G D G J H H P Y } r.} r.} r.{ { } o.o.o.o.o.{ } ( P P F A A V V V Z Z Z S C ",
"y y p d f d g g g g k k b S S A A A G G A A G J P J J J J J F G A C A m c A G b S S Z Z Z A G A V V m c c m z c z z z z z z z z ",
"% 5 5 5 5 5 6 6 5 8 8 0 e y p d l l c b C A G J Z V N N B m B n c c c c l c c c N n n n n x z z c m c c m m m C m m n n M M M M ",
"< 6 < 6 7 6 7 7 w 8 8 0 8 8 0 0 0 0 y y p f f l z x c x l h k k c c c m c c c c m x n M B V B m z c m m m Z m m m n n z M M M k ",
"- < < 3 4 4 7 9 7 7 7 9 9 r 9 r y r 0 y r y y y r r y y w w u i u l l v c z z z M h h f f d i e t p p f s s p y u e w 0 0 8 8 7 ",
"= = 1 1 1 1 3 3 , 7 3 4 9 9 9 9 0 0 0 0 r 4 4 6 r 9 7 r w q w w 4 4 4 r u t u u q 0 9 0 0 0 w w 0 0 8 8 8 8 8 6 w 0 8 9 7 7 7 7 ",
"> > 1 1 1 3 1 3 4 4 4 4 4 4 3 4 4 0 4 4 9 r 4 r r r r 9 u u u q u u r r r r r r r w r w w w q r r r r 9 r r 9 r 8 7 7 7 7 7 6 < ",
"> = = 1 1 3 3 1 2 3 3 3 4 4 4 9 0 4 4 0 r 4 r r 4 4 4 r q q q q 4 r r r 4 4 r q q 7 q q 7 7 q q 9 9 0 r 9 9 9 8 9 0 0 9 9 7 7 7 ",
"= = 1 - 1 < < < 3 < 3 3 7 9 9 4 4 4 r 4 r 4 r 4 q w q q q q 4 q 4 4 4 4 9 r 4 4 4 9 9 q w q q q 0 0 w r r u q q u w q q q q 8 q ",
"= = - 1 1 < < < 6 3 7 7 9 9 0 9 r r 4 r 4 r 4 r 2 q q 4 4 q q q r 4 4 r 4 r 4 r r q q q w r w w w w 9 7 q q r q 9 w w q w 7 ; & ",
"% - - - 5 6 5 5 6 6 6 7 9 9 9 9 4 9 r 9 9 9 4 4 7 7 7 7 q q q 2 9 4 r 4 4 7 9 0 w w q q 0 w w w w w e u i u u u w w 7 2 ; # X   ",
"= - - - < % < < 6 6 6 7 6 6 6 7 4 4 4 4 3 4 3 4 q 7 7 q 2 q q q r 4 r r 9 r r r q q q w r w i t w w w r r w 4 4 & # + X   O O O ",
"* * = : % < - < , , 3 < < 6 < 6 3 6 7 7 3 3 7 3 2 7 7 2 7 8 8 8 4 9 0 0 9 0 0 0 w w e r t t y i p w 6 & # O O X X X O O O O O O ",
"& = & & < - - - > , , < < 2 2 2 < 2 6 7 7 7 7 7 7 8 8 q q 8 w 8 9 9 0 0 0 0 0 0 8 8 8 5 5 - % % + O X X O O + + + O O O O O     ",
"; & ; ; ; = > > 2 > 2 2 2 < 2 7 2 5 5 6 7 6 7 6 8 8 8 8 8 q 8 8 0 6 6 % 6 < 5 % % % $ @ + o X X o o + O O X     O O   X O O O O ",
"& & & & * * = > ; ; ; , 2 2 2 2 7 6 5 7 6 6 7 7 : 7 7 8 2 : : * % % % % % % % o o o o o o o o o o o o o O O O O X X O O O O X   ",
"& & & & * * * : : : 5 : 5 : : * $ $ + $ $ + $ + $ + $ + $ O $ + + + + O O X O X O X X O O X X X o o o o X O O O X X X X O X X X ",
"& & & & * * & $ & $ $ $ + + X X + + + + + + + + + + + + + + X O O O O O O O X X O O O O O O O O o o X O O O X O X X X X X X X O ",
"$ $ # $ # + # + O X O O + + + + + X + X O O O + O O O O O O O O o o O X X X X O X O O X O X O O O O O O O O X O X X X O X X X X ",
"O O O O O O O O + + O + O O + + O O O + O O O O X O X X X X X X X X X X O X X X O X O X O X O X X O X X X O X O X O X X X O X X ",
"O X X O X O O O + O O X X X X   X X X X X X X X X O X X O X X X X X X X O X O X X O X O O O X O X O O X X O O X X X X X X X X O ",
"X O X X X X X X         X X O O X X X X X X X X X X X X X X X O X X X O X O X O X X X X X X X X X X X O X X X X X X X X X X X X ",
"X X X X X X X X O O O X X X X X X X X X X X X X X X X X X X X X X O X X X X X X X X X X X X X X X X X X X X X O X X X X X X X X ",
"X X X X X X X X       X   X   X X X X X X X X X X X X X X X X X X X X X X X X X O X X O O X X O X O X X X O X X X X X X   X X X ",
"    X   X X X X       X   X   X   X   X   X   X X X   X X   X X X X X X X X X X X X X X X X X X   X X X X   X X X X X X X X X X ",
"      X   X   X X   X   X   X   X   X   X   X   X X X X X X X X X O X X X X X O X X X O X X X X X X X X X X X X X   X X X   X X ",
"    X   X   X     X X X   X   X       X   X   X X X X X X X X X X X X X X X X X X X X X X X X X X X X X X X X X X X X X X X X X ",
"          X                               X X       X   X     X X X X o X X X X   X X X X X X X X X   X X X X X X X X   X X X   ",
"  .                       X                 X X X X   X X X   X X   X   X   X     X   X   X X     X   X                   X   X ",
".                   O                 X                           X   X X X   X X X X   X   X                                   ",
". .                               .                                                                                             ",
"  . .                 X       X           X                   . X   X         X     X                               .     . .   "
};
