/* XPM */
static char *_4189_a8b70f6c9aaf08ba74e1afac1344d1d16ac4bdcd1873d4114c31bba8a205397a[] = {
/* columns rows colors chars-per-pixel */
"64 64 190 2 ",
"   c #3C1625",
".  c #3D1827",
"X  c #3E1B29",
"o  c #411D2B",
"O  c #43212E",
"+  c #452432",
"@  c #482634",
"#  c #492937",
"$  c #4C2C3B",
"%  c #5D3136",
"&  c #50303F",
"*  c #5D363A",
"=  c #63353E",
"-  c #68373A",
";  c #63393C",
":  c #673636",
">  c #733A39",
",  c #7C3F3F",
"<  c #7C423E",
"1  c #502F40",
"2  c #533343",
"3  c #5A3946",
"4  c #5A3749",
"5  c #5C3C4B",
"6  c #573B4A",
"7  c #563D53",
"8  c #5C3D52",
"9  c #643C44",
"0  c #6A3C41",
"q  c #633E4B",
"w  c #693F4A",
"e  c #623643",
"r  c #623E53",
"t  c #5D414E",
"y  c #574153",
"u  c #5D4253",
"i  c #5F4852",
"p  c #5E4559",
"a  c #5E4A5E",
"s  c #664145",
"d  c #6C4143",
"f  c #62424C",
"g  c #6C404F",
"h  c #6B484F",
"j  c #744446",
"k  c #7B4545",
"l  c #72444A",
"z  c #7B4A4C",
"x  c #75484B",
"c  c #634353",
"v  c #6B4454",
"b  c #644955",
"n  c #694955",
"m  c #63455A",
"M  c #6A4659",
"N  c #64495A",
"B  c #6A4A5B",
"V  c #7D4E51",
"C  c #7D5053",
"Z  c #8C483F",
"A  c #894E4D",
"S  c #914C43",
"D  c #82534C",
"F  c #814D53",
"G  c #835355",
"H  c #855458",
"J  c #8B595D",
"K  c #88535B",
"L  c #925A57",
"P  c #9D5950",
"I  c #94595B",
"U  c #9B5E5E",
"Y  c #A35D53",
"T  c #B45F5A",
"R  c #A6655D",
"E  c #B8635E",
"W  c #8D5860",
"Q  c #9F5F60",
"!  c #A15F60",
"~  c #9D6160",
"^  c #9D6D61",
"/  c #A46364",
"(  c #A76D69",
")  c #AD6D64",
"_  c #B76C67",
"`  c #BC6E6A",
"'  c #BA6A65",
"]  c #BB746C",
"[  c #B97368",
"{  c #B97F7E",
"}  c #B37C75",
"|  c #C06D67",
" . c #C06F6B",
".. c #C2746F",
"X. c #C57C6F",
"o. c #D57366",
"O. c #D7776B",
"+. c #D7796D",
"@. c #C87B74",
"#. c #D97D70",
"$. c #E47B66",
"%. c #E77E69",
"&. c #CC8174",
"*. c #CA857A",
"=. c #DC8474",
"-. c #D2847D",
";. c #DD8579",
":. c #D68B7E",
">. c #D18377",
",. c #E4826C",
"<. c #E8836F",
"1. c #F28A6D",
"2. c #E38770",
"3. c #E38B75",
"4. c #EB8974",
"5. c #E48E7A",
"6. c #EB8C79",
"7. c #E98470",
"8. c #F48E71",
"9. c #F28E7E",
"0. c #E7907C",
"q. c #EB927D",
"w. c #EF987D",
"e. c #F69474",
"r. c #F99674",
"t. c #FC9D76",
"y. c #F0967E",
"u. c #FC977B",
"i. c #F5997B",
"p. c #FA9A7C",
"a. c #F79973",
"s. c #F6A276",
"d. c #FDA077",
"f. c #FBA37C",
"g. c #F7A87D",
"h. c #FAAA7E",
"j. c #C88B83",
"k. c #DC8D82",
"l. c #C59183",
"z. c #DD9080",
"x. c #DA988D",
"c. c #EB9481",
"v. c #ED9B81",
"b. c #F29F82",
"n. c #F99D80",
"m. c #DDA199",
"M. c #EBA18D",
"N. c #FEA581",
"B. c #FCAD84",
"V. c #FFAC8A",
"C. c #F5A886",
"Z. c #FBB186",
"A. c #F6B48D",
"S. c #FDB38B",
"D. c #FEB98E",
"F. c #E8A796",
"G. c #F5A790",
"H. c #F4AE95",
"J. c #F8AD90",
"K. c #F2B295",
"L. c #FBB790",
"P. c #FEBB93",
"I. c #F6B59B",
"U. c #FEBD99",
"Y. c #ECB0A6",
"T. c #F6B7A2",
"R. c #FEC196",
"E. c #F6C39D",
"W. c #FEC39C",
"Q. c #FDC99E",
"!. c #EEC2A7",
"~. c #EFC3A8",
"^. c #FEC6A2",
"/. c #F6C9A0",
"(. c #FDCBA4",
"). c #F2C6AB",
"_. c #F6C9AD",
"`. c #FDCDAB",
"'. c #FDD1AE",
"]. c #F5CCB4",
"[. c #FACDB3",
"{. c #F6CEB9",
"}. c #F8CFBA",
"|. c #FED3B4",
" X c #F6D2BC",
".X c #FDD4BB",
"XX c #FFD9BD",
"oX c #F6D5C2",
"OX c #FBD6C2",
"+X c #FCD9C2",
/* pixels */
"].].]. X X X X X X X XoX X X XoXoXoXoXoXoXoXoXoXoXoXoXoXoXoXoXoXoXoXoXoXoXoXoXoXoX}.}.}.}.{.}.{.{.{.{.{.].].]._._.).).).Y.~.~.~.",
"]. X X]. X X]. X X X XoXoXoXoXoXoXoXoXoXoXoX+XoXoXoXoXoXoXoXoXoXoXoXoXoXoXoXoXoX}.oXoX}.oX{.}.}.}.{.{.].].].].].].).).).].~.~.~.",
"]. X X X X XOX X XoXoX X+XoXoX XoXoX+X+XoXoX+XoXoX+X+XoXoX+X+X+XoXoXoXoX+XoXoXoXoX}.OX}.}.oX}.}.}.}.{.].{.{.[.].).]._._.)._.).).",
" X X X].oX.X X X X XoXoXoXoXoX+X+X+X+X+XoX+X+XoX+XoX+X+X+X+X+X+XoX+X+XoX+X+XoX+XOXOXOX}.oX}.oX X}.oX}.].[.{.{.{.{.{.]._.].].).).",
" X X.X X.X XOX XOX.XOXOX+X+X+X+X+X+X+X+X+X+X+X+X+X+X+X+X+X+X+X+X+X+X+X+X+XoX+X+XOX.XOXOXOXOXOXOXOX}.}.}..X}.[.{.[._._._._._._._.",
" X X X X XXXOXOXOXOXOXOX+X+X+X+X+X+X+X+X+X+X+X+X+X+X+X+X+X+X+X+X+X+X+X+X+X+X+X+XOXOXOXOX}.OX}..X}.}.}..X[..X}.[.[.[.[._.]._._.).",
"'.|..X.XXX.X.X.X.XOXOXOXOX+X+X+X+XXXXX+X+X+X+X+X+X+X+X+X+X+X+X+X+X+X+X+X+X+X+X+XOXOXOXOXOX}.OX.XOX.X.X|..X|.}.[.[.[._.[.[._._.).",
" X X X|..X.XOX.XOX.XOXOXOXOX+X+X+X+X+X+X+X+X+X+X+X+X+X+X+X+X+X+X+X+X+X+X+X+X+X+XOXOX.X.XOX}.}.OX}.|.}.}.}.[.[.|.[.[.[.`.[.`.`.^.",
".X|.XXXXXX|.XXXX.X+X.XOXXXXXOX+XXXXXXXXX+X+X+XXX+X+X+XXXXX+XXXXX+X+X+X+X+XXXXX+XXXXX XXXOX}..X.X.X|.|.|.|.|.[.|.[.[.[.`.`.`.^._.",
"|.|.|.'.|.XXXXXXXXXXOX|.OXXXXXXXXXXXXX+X+XXX+XXXXXXXXXXX+XXX+XXX+X+X+X+XXXXXXXXXXXXXXXXX.X.X.X|..X|.|.|.|.`.|.`.[.`.`.`.^.`.`.T.",
"|.|.XXXX|.XXXX|.|.|..XXX.XXX.XXXXXXXXXXXXXXXXXXXXXXXXXXXXXXXXXXX+X+X+X+XXXXXXXXXXX|.|.|..X|.|.|.[.|.|.'.[.`.`.|.`.`.`.^.`.^.^.^.",
"|.[.|.'.|.'.|.|.XX|.XX|.XX|.XXXXXXXXXXXXXXXXXXXXXXXXXXXXXXXXXXXX+X+X+X+XXX|.XXXX|.XX|.|.|.|.|.|.[.|.|.`.'.'.`.`.`.^.^.^.^.^.^.^.",
"'.'.'.|.'.'.'.|.|.|.|.|.|.|.XXXXXXXXXX|.|.XX|.XXXXXXXXXXXXXXXXXXXXXXXX|.XX|.XX|.|.XX|.'.|.|.|.'.'.'.'.'.`.`.(.(.(.(.^.^.^.^.U.W.",
"'.'.'.'.'.'.|.|.|.|.|.'.|.|.|.'.|.XX|.XXXX|.XXXXXXXXXX'.|.XX|.XXXXXX|. X|.|.|.|.|.'.|.'.'.'.'.'.`.(.'.(.(.(.(.(.^.^.^.W.U.^.W.U.",
"'.'.'.`.'.'.'.'.'.'.'.'.'.'.|.|.|.|.XX|.|.|.|.XXXX|.|.XX|.|.|.|.'.'.|.'.'.|.'.'.'.'.'.'.'.`.'.`.(.(.(.Q.(.^.^.^.Q.W.Q.U.W.P.U.P.",
"/./.(./.'.(.(.'.'.'.'.'.'.'.'.'.'.'.'.'.|.|.|.|.'.|.'.'.|.|.|.|.'.'.'.'.'.'.'.'.'.`.(.`.(.(.(.(.(.Q.(.Q.^.W.Q.W.W.U.U.P.P.P.P.P.",
"Q.Q.Q.Q./.Q.(./.(.(./.(.(.(.(.(.(.(.(.'.'.`.`.`.`.[.[.`.`.[.'.`.'.'.'.'._.`./._.)./.(.^.Q.^.R.Q.W.Q.W.W.W.W.U.P.P.P.P.L.L.L.L.S.",
"R.Q.R.Q.Q.Q.Q.(.Q.Q.(.Q.Q.Q.Q.Q.Q.(.Q.(.Q.(.`.`.`.^.^.`.`.^.E.Q.(.Q.E.E.Q.`.'.`.^.^.^.W.R.R.R.R.U.P.P.P.P.P.P.P.L.L.D.S.S.D.S.V.",
"R.P.P.P.U.U.R.Q.T.Q.U.^.Q.Q.W.Q.Q.E./.E.^.^.W.^.Q.(.(.R.P.R.Q.(.R.Q.Q.Q.Q.R.R.P.U.R.U.U.U.U.I.P.P.P.P.L.D.D.D.D.D.D.S.Z.Z.S.B.B.",
"S.D.D.P.P.P.U.U.U.U.U.U.R.U.U.U.W.E.E.Q.E.R.R.U.R.P.R.R.R.R.P.D.D.R.D.D.D.P.P.R.P.P.P.P.P.U.P.P.D.S.A.D.S.A.Z.Z.B.B.B.B.h.B.g.g.",
"Z.S.S.S.L.D.L.L.D.D.L.L.D.D.D.D.P.P.P.P.P.P.D.S.P.A.A.P.P.A.L.U.D.D.S.D.P.D.S.Z.S.S.S.V.V.L.J.V.A.B.B.B.B.Z.B.g.h.g.g.d.s.s.s.s.",
"Z.h.h.B.B.B.A.B.A.S.B.S.V.Z.S.S.V.J.V.S.V.S.S.S.B.P.P.S.K.U.T.K.A.K.U.L.C.C.Z.S.B.B.V.V.B.V.V.V.B.N.N.B.N.C.N.f.d.f.t.t.t.a.a.a.",
"d.t.d.d.t.f.f.f.N.N.N.N.N.h.N.h.N.N.N.N.N.N.h.B.C.H.H.F.T.Y.j.L V ^ l.F.T.H.C.v.N.N.N.N.n.n.n.n.p.p.p.p.i.u.i.r.u.e.8.8.8.1.1.1.",
"r.a.r.r.u.i.u.p.p.p.p.p.p.u.p.u.u.n.n.u.u.n.n.n.G.v.F.m.{ V = 9 < * ; C } x.F.M.v.w.y.y.y.q.c.c.q.6.6.6.6.4.4.4.7.<.,.,.,.%.%.O.",
",.2.,.5.3.=.=.0.3.5.0.0.5.5.0.c.c.c.c.%.0.w.c.z.*.) A j l g v M a y t 3 ; D ( j.k.k.&.@.>.:.k.k.;.;.;.;.=.=.=.+.O.O.O.o.o.o.o.o.",
"X.X.&.[ Y S Z S P R ] *.*.@.] [ | +.-.-.-.&.[ ~ < > - s v v M m a a N N f 9 0 k I A < > , A I Q _ _ ` ] ] ......` ` | ' ' E E T ",
"H D z V x d 0 0 % ; l C G G V z F W W W J H z ; d s s n n b u i y y p i b q 9 9 e = e 9 w q q e : : > k A I I ~ Q ~ / / / / Y ! ",
"v s t s v b c r b c t c b n M M M r r r 3 t s 3 f f f h f t t b i i t u c b v v c c m N m 8 8 8 s 9 0 9 ; % : % l l z V H K K K ",
"v n M v v r 8 8 m 8 8 8 8 r r 8 r p p u p u c c t t t f b b i t b b b c c u 5 8 u u u 7 7 7 p p 5 t 3 t t s f f 3 3 4 e 9 9 s s ",
"w r r r r r r c r r r p r r c r 7 7 u u p p m m B n N N b b i i q q v b c M N c 7 u p p p p u y y t y t y 5 6 6 q 8 q q 5 5 5 q ",
"f 3 3 3 q u t 6 8 t 5 5 r c c c c c g c b c M M N m m 8 u i N b b v M u u u N c c b u s t f s t u u t 8 8 6 8 8 5 8 4 4 4 4 4 q ",
"3 q f 5 4 4 5 c 5 u u t r u q t q q f v v r r r m m M B N c p c c c c c u N u i t t t t f s s q 5 u 5 7 8 5 5 5 5 5 8 4 4 4 4 4 ",
"3 3 5 t q t 5 6 5 t 5 5 8 5 8 7 c r c c c c c c M c u 8 8 5 5 r c c c c c c c c 8 u q t q q q 5 5 5 5 5 5 5 5 5 3 5 4 3 4 4 4 6 ",
"4 5 5 4 6 5 r c 5 5 8 c c r r 7 5 8 q 5 r 5 8 8 4 4 4 2 4 4 4 4 4 4 4 5 u c c c c c c r c 8 8 q f 8 u 5 5 t 5 5 5 3 5 6 6 3 3 3 ",
"5 3 5 5 5 5 t 5 r q 4 5 5 4 7 7 2 4 2 4 2 4 4 4 2 4 4 2 2 2 2 4 2 2 4 4 4 4 5 5 u q u y 8 c q c r f q 5 5 5 5 6 5 5 4 4 6 3 3 3 ",
"3 6 5 5 f 5 6 6 4 4 4 4 2 2 1 1 & & 1 1 1 1 1 1 2 1 2 2 2 2 2 4 4 2 2 2 2 2 2 2 4 4 6 7 5 5 8 5 5 t 5 5 5 5 5 5 5 3 4 3 3 6 2 4 ",
"3 3 5 5 4 2 1 1 1 1 1 1 1 1 1 1 1 1 1 1 1 1 1 2 1 1 1 2 1 1 2 2 2 1 1 1 1 2 2 2 1 1 1 1 1 2 2 2 3 4 6 6 5 5 5 5 6 3 6 4 6 3 6 4 ",
"5 3 3 & 1 1 1 $ $ $ $ $ $ 1 $ 1 & 1 1 1 1 1 1 1 1 1 1 1 1 1 1 1 1 1 1 1 1 1 1 2 1 1 $ 1 1 $ 1 1 & & 1 1 2 2 3 3 4 4 3 3 4 3 6 3 ",
"3 & $ $ # 1 $ $ 1 1 1 1 1 $ $ $ $ $ 1 $ $ 1 $ $ 1 1 1 1 1 1 1 1 2 1 1 1 1 1 1 $ 1 1 1 1 1 1 $ 1 $ $ $ $ $ $ $ $ $ $ & & 2 2 2 4 ",
"# $ # # # 1 # 1 # # $ # $ $ $ $ 1 1 $ 1 1 1 1 1 1 1 $ $ 1 $ 1 $ 1 1 1 1 1 1 1 $ 1 $ 1 # 1 # $ $ $ $ $ $ $ # $ # @ @ # $ $ & & $ ",
"# # # $ # % $ $ $ $ # $ $ $ $ $ $ $ $ $ & $ $ & $ $ $ $ $ $ $ $ $ $ $ $ $ $ $ $ & & $ & $ 1 $ $ $ $ $ $ $ $ $ $ $ $ # # 1 # 1 # ",
"# # # # # # # $ # $ $ # $ $ $ $ $ $ $ $ $ $ & $ 1 $ $ 1 & & $ & $ 1 1 $ $ 1 1 $ $ $ $ $ $ $ $ $ # $ # # $ # # # # # 1 # # # # # ",
"# # # # # # # # # # # # # $ $ $ $ $ $ $ $ $ $ $ 1 $ $ 1 $ & $ & $ 1 $ $ 1 $ # 1 $ & $ $ $ $ $ $ $ # # $ # $ # $ $ $ # # # # # # ",
"# # # # $ # $ $ $ $ $ $ $ $ $ $ $ $ $ $ $ $ & $ $ $ $ $ $ $ $ $ $ $ $ $ $ $ 1 1 $ $ & $ $ $ 1 1 $ $ $ $ $ $ $ $ # # # # # # + 1 ",
"# O + # # # # $ # # 1 1 # 1 # 1 # 1 # 1 & $ $ & $ 1 $ $ $ 1 1 $ 1 & 1 $ $ 1 1 # $ $ $ $ $ $ # # $ $ # $ $ $ # $ $ # + $ 1 # # $ ",
"O O O O @ @ # # # # # # # # 1 1 1 $ 1 1 $ & & $ $ 1 $ 1 $ $ $ 1 & $ $ 1 $ $ 1 1 & $ $ $ $ $ 1 $ $ $ $ $ $ $ $ $ # $ $ $ + # # # ",
"X O O O O + @ @ + + + + + 1 # # # # # # # $ $ $ 1 $ $ $ $ $ @ % $ $ # # $ # # # $ $ $ $ $ $ $ # $ $ # $ $ $ $ $ # # # # # $ # # ",
"O O O O O O + O + + + O + + + + + # + # + @ + @ @ + + @ @ @ @ @ @ @ # # # # # # # + + + # + + # + + + + + + + + # # $ + # + # # ",
"O O o O O O O O O + O + O + + + O + + + + + @ O @ @ + @ O @ O @ $ + + $ + + + + + + + + + + X + + X + + + X + + + + + + X + + O ",
"o O O O O O + + O O + + + + + # + O + + + + + O @ @ @ @ @ @ @ @ + + + + + + + $ + + + # + + # + + + + + + + + X + X + X + + O O ",
"O O O O O O O O O O + O + + + + + + + + + @ + @ + + @ @ @ @ O @ + + + + $ + + + + + + + # X + + + + + + + X + + X + + + O X X O ",
"X X X X O X O O O O O O O O + O + + + + + + + @ + + + + @ @ @ @ + + + + + + + + + + + + + + + O + + X + + + X + + X X + O O O O ",
"X X X X X O O X O O O O O O O O + O + + + + + + + O @ + @ @ O @ + + $ + + + + + + + + + + + + + X + + + X + + X O O O + + O O O ",
"X X X X X X X O X X X X X O X O O O o + O O O O O + O @ + O @ @ + + + + + + + + + + + + + + O + + + + + X + + X + O O O O O O O ",
"X X X X O X X X X X X O X O O O O O o O o O O O o O O O O @ O O + + + + + + + + O + + + O O O O X + + X + X + + X O o O o O X X ",
"X X X X X X X X X X O X X X O X O o o o O o o O o o o O O o o O o o + + o + o + o O o X o o o o X X X X X X X X X X o o X X X X ",
". . . . . . .   X X . X . X X X o     o . o X X o o o o o o o o o o o o o o o o o X o o o X o X X X X . X X X X X X X X   . . . ",
"      . . . .   X X X X X X X X     o   o . X o o o   o o o o o o o X o o o o X o X o X X o o o X X X . X X X X X X X   X   . . ",
". . .   . .     X X X . X X . X   o     . X o X     o o o o o   o o o o o o o X X X X . X X X X X X . X . X X . . . X   . .   . ",
"    . . . .     X X X . . . . X   o   o . . . . o o   o o   o o X X X X X X X X . X X . X X X X X X X X . . . . . X   X       . ",
"                        . . . .     o   o   o o   o   o o o   o   o   o X X X X . X X . X X   X X X   X X   X .         .       ",
"                    .   . . . . o                 o       o o       o   X   X   .   . . X   X X X X X .     . X                 ",
"                            . .             o       o     o   o o     o   o                     . .                             ",
"                          .   .       o       o           o       o   o   X                     . .   .                         "
};
