/* XPM */
static char *_013_48ce0bf3f43e057f2bcbda782f3c1ee1986b97f5d7e1428794ac80d9e51a2391[] = {
/* columns rows colors chars-per-pixel */
"64 64 199 2 ",
"   c #1D1E34",
".  c #1F1F3B",
"X  c #201F2E",
"o  c #201F34",
"O  c #221F3D",
"+  c #1E2037",
"@  c #1E2039",
"#  c #222034",
"$  c #24203B",
"%  c #29253E",
"&  c #2C283F",
"*  c #241F42",
"=  c #262142",
"-  c #2A2445",
";  c #2E2843",
":  c #2C2549",
">  c #2F284A",
",  c #322C4C",
"<  c #312B47",
"1  c #36304C",
"2  c #3C344E",
"3  c #362E52",
"4  c #363151",
"5  c #3B3452",
"6  c #3E3758",
"7  c #3F3959",
"8  c #3F3857",
"9  c #443C54",
"0  c #4A3F57",
"q  c #433D5A",
"w  c #403651",
"e  c #463F60",
"r  c #454057",
"t  c #494156",
"y  c #46405A",
"u  c #4C455C",
"i  c #4D495E",
"p  c #51495E",
"a  c #5C4C5B",
"s  c #50465E",
"d  c #5E505D",
"f  c #63494F",
"g  c #6B4E54",
"h  c #66535E",
"j  c #6C555B",
"k  c #6D565B",
"l  c #7A555A",
"z  c #76555A",
"x  c #4F4A60",
"c  c #534B62",
"v  c #5A4E63",
"b  c #504762",
"n  c #5C5365",
"m  c #5E5669",
"M  c #5E5A6A",
"N  c #614E63",
"B  c #635364",
"V  c #6C5464",
"C  c #645863",
"Z  c #6B5963",
"A  c #64596B",
"S  c #6C5A6B",
"D  c #645768",
"F  c #735A65",
"G  c #7A5963",
"H  c #725762",
"J  c #635E72",
"K  c #84585A",
"L  c #925B5E",
"P  c #835C64",
"I  c #875E69",
"U  c #8D6264",
"Y  c #8D646D",
"T  c #946869",
"R  c #986668",
"E  c #976B72",
"W  c #9D7170",
"Q  c #AD6D69",
"!  c #BA6E6D",
"~  c #A9716A",
"^  c #B3756D",
"/  c #BD716F",
"(  c #A77674",
")  c #B87D77",
"_  c #C06F6C",
"`  c #C0706F",
"'  c #DC7D6E",
"]  c #CB7D71",
"[  c #C17D77",
"{  c #D77E72",
"}  c #BD817C",
"|  c #B3807F",
" . c #DE8E6D",
".. c #D1866F",
"X. c #DE946F",
"o. c #C4817D",
"O. c #CC827D",
"+. c #CA857A",
"@. c #DD8476",
"#. c #DC8D72",
"$. c #D6827C",
"%. c #D9847B",
"&. c #D48F7B",
"*. c #DD8C7D",
"=. c #D48B74",
"-. c #DC9374",
";. c #DE9975",
":. c #DD927B",
">. c #DA9479",
",. c #E08B6E",
"<. c #E1986F",
"1. c #F19B6F",
"2. c #E08877",
"3. c #E29475",
"4. c #EC9373",
"5. c #E29975",
"6. c #EB9B74",
"7. c #E3937B",
"8. c #EB967A",
"9. c #E59B7A",
"0. c #E99D7D",
"q. c #F39D73",
"w. c #FD9E75",
"e. c #F19D78",
"r. c #EEA072",
"t. c #EEA27C",
"y. c #F4A273",
"u. c #FDA375",
"i. c #F5A975",
"p. c #F1A47C",
"a. c #FEA379",
"s. c #F5AB7B",
"d. c #FCAC7C",
"f. c #FCA976",
"g. c #F7B27A",
"h. c #FAB37D",
"j. c #B98684",
"k. c #C78785",
"l. c #D28C82",
"z. c #D88A83",
"x. c #D38682",
"c. c #CB918C",
"v. c #D49381",
"b. c #DE9684",
"n. c #D5948C",
"m. c #D59691",
"M. c #E19585",
"N. c #EE9D81",
"B. c #F09F82",
"V. c #EDA281",
"C. c #F3A581",
"Z. c #FAAB82",
"A. c #F4A884",
"S. c #F7B180",
"D. c #FDB382",
"F. c #FCBC84",
"G. c #FEB789",
"H. c #FEBD8B",
"J. c #FFBF91",
"K. c #FCC184",
"L. c #FDC28C",
"P. c #FEC493",
"I. c #FDCA95",
"U. c #FDC699",
"Y. c #FDCC9C",
"T. c #FED09F",
"R. c #F6CCA6",
"E. c #FCCDA2",
"W. c #F4CFAC",
"Q. c #F8CEA8",
"!. c #FDD1A4",
"~. c #F6D0AB",
"^. c #FBD3AC",
"/. c #EFD2B6",
"(. c #EAD5BE",
"). c #F4D3B3",
"_. c #F8D7B4",
"`. c #FAD8B5",
"'. c #F1D6B9",
"]. c #F4D8BB",
"[. c #D6D2CF",
"{. c #DDD5CB",
"}. c #CDD4D6",
"|. c #C6D2DD",
" X c #CBD5DC",
".X c #CDD8DE",
"XX c #D3D4D5",
"oX c #DAD6D1",
"OX c #D1D5D9",
"+X c #E5D5C6",
"@X c #ECD9C3",
"#X c #E3D7CC",
"$X c #E2D9CD",
"%X c #EAD9C9",
"&X c #F1DBC3",
"*X c #C5D3E3",
"=X c #C9D7E1",
"-X c #C7D8E2",
";X c #CAD8E3",
/* pixels */
"*X*X*X*X*X*X*X*X*X*X*X*X*X*X*X*X-X-X-X-X-X-X-X-X;X-X-X=X=X-X=X=X=X;X;X;X;X=X;X;X=X;X=X;X;X;X;X;X=X=X=X-X-X-X-X-X-X-X-X-X-X-X-X-X",
"*X|.*X*X|.|.*X*X|.|.|.|.*X*X*X*X.X|.|.|. X;X-X|..X X-X X X=X=X|.=X=X|.=X=X=X=X=X X;X=X=X;X;X;X;X=X=X=X=X|..X.X.X|.-X-X.X.X-X;X-X",
"|.|.|.|.|.|.|.|.|.|.|.|.|.|.*X*X|.|. X X X X X|. X X X X=X|. X X|. X=X=X X=XOX=X;X X;X.X X;X X;X.X.X X X.X.X.X.X.X.X.X.X.X.X.X.X",
"|.}.|.|.}.}.|.|.|.|.|.|. X X XOX}.}. X}. X}. X}.|.}.}. X}.}.}. X}.}.OX}.OX}.}.OXOXOX.XOXOXOXOXOX}.OXOX X.X}.}.}..X}.}.}.OXOXOXOX",
"[.}.[.}.}.}.[.}.OXOXXXOXXXOXOXXX}.}.XXXXXX}.XX}.XX}.OXXXXXXXXXXXXXXXOXOXOXXXXXXXOXXXOXXXOXOXOXOXXXoXXXoXOXXXoXXXoXOXoXOXXXoXOXoX",
"[.[.[.[.[.[.[.[.[.[.[.[.[.[.[.[.oXoX[.[.oXoXoXoXoXoXoXoXoXoXoXoXoXoX[.oXoXoXoXoXoXXXoXoX$XoXoXoXoXoX{.oX{.oXoXoX$XoXoX$XoXoXoX$X",
"[.[.[.[.{.[.{.[.{.{.#X{.[.#X#X{.{.{.{.{.{.{.{.{.{.oX$X$X{.oX$XoX#X#XoX#X$XoX$X$X$X$X$X$X$X$X$X$X$X$X$X$X$X$X$X$X$X$X$X$X$X%X$X$X",
"(.+X/.+X(.+X(.+X+X+X+X+X+X+X+X+X%X+X+X+X%X+X%X%X%X+X%X+X+X%X+X%X%X%X%X%X%X%X%X%X$X%X%X%X%X%X%X%X%X%X@X+X%X%X@X%X%X%X%X%X%X%X%X%X",
"(./.(.(.(./.(.(./.+X+X/.+X+X/.@X(.(.(.(.(.(.(.(.(.(.@X@X(.@X(.@X@X@X@X@X@X(.&X@X@X@X(.&X@X&X&X@X&X&X&X&X&X&X&X(.&X&X&X&X&X&X&X&X",
"/././././././././.W././.)./././././.(././.'./.(./././.'.'.'.'.'.'.'.'./.'.'.].].'.].].].].].].].].].].].].].].].].&X].].].].].].",
"W.W.W.W.W.W.W.W.W.W.W.).W.W.R.W.~.~./.~.).).).~.).).).~.).).).).)._.).).).).'.)._.'.)._.)._._._._.).`._.`.`.`._.`.`.`.`.`.`.`.`.",
"R.R.R.R.R.R.R.R.R.R.R.R.Q.Q.Q.Q.~.~.~.~.~.~.~.~.~.~.Q.~.~.~.~.~.W.W.W.Q.^.~.~.~.^.^.^.^._.^.^.^.^.^.^.^.^.^.^.`.^.`.^.^.`.^.`.^.",
"J.R.R.R.R.U.R.R.E.E.R.E.Q.E.E.E.R.R.R.R.R.!.Q.R.!.!.R.!.!.!.Q.!.Q.E.!.!.!.R.!.!.^.!.!.!.^.!.!.^.^.^.!.!.!.!.!.!.^.^.^.^.!.^.^.!.",
"R.J.R.J.R.U.Y.Y.E.Y.U.E.E.E.J.E.Y.Y.Y.Y.Y.Y.Y.Y.Y.E.E.Y.Y.E.E.Y.E.Y.E.E.Y.E.!.Y.!.!.!.!.!.!.!.!.T.!.!.!.!.T.!.!.T.T.T.T.!.T.!.!.",
"U.U.J.U.U.U.U.U.U.U.U.U.U.U.E.J.U.U.Y.Y.Y.Y.Y.Y.Y.Y.Y.Y.Y.Y.Y.Y.Y.Y.Y.Y.Y.Y.T.T.Y.Y.T.T.T.T.T.T.T.T.T.T.T.T.T.T.T.T.T.T.T.T.T.T.",
"L.U.L.P.P.P.P.P.P.P.P.P.U.U.U.U.I.I.P.P.Y.P.I.P.Y.I.Y.I.Y.I.Y.I.Y.I.Y.I.Y.Y.Y.I.I.Y.Y.I.I.Y.Y.I.Y.T.T.T.T.T.T.T.T.T.T.T.T.T.T.T.",
"K.L.K.L.L.L.L.L.L.L.P.L.P.L.L.I.L.L.U.I.L.I.I.L.P.I.I.I.I.L.I.I.I.I.I.I.Y.I.Y.I.I.I.I.Y.I.I.I.Y.L.I.I.I.I.I.I.I.I.I.I.I.I.I.I.T.",
"K.K.K.K.L.L.L.F.L.L.F.L.L.L.L.L.L.L.L.L.L.L.L.L.L.L.L.L.L.I.P.L.P.P.P.P.P.P.P.P.I.P.I.P.I.I.I.P.I.I.I.L.I.P.P.I.I.I.I.I.I.I.I.I.",
"S.K.K.K.H.K.F.H.K.H.H.L.L.L.L.L.L.L.H.L.J.L.L.L.H.P.H.J.L.L.P.J.P.P.P.P.P.P.P.P.P.P.P.J.P.P.P.P.U.U.P.U.U.U.U.U.Y.U.U.U.U.U.R.I.",
"K.K.g.K.F.F.H.F.F.F.H.L.K.K.K.L.F.H.H.H.H.H.J.L.H.H.J.H.L.J.H.J.P.F.J.J.H.P.J.L.J.J.J.P.J.J.P.P.P.P.P.P.P.U.P.U.P.P.P.U.U.U.U.I.",
"K.h.h.h.S.K.F.F.F.F.F.K.F.F.F.G.F.G.G.G.H.L.H.H.H.J.G.J.H.H.J.F.F.F.L.F.F.F.L.L.F.L.F.L.H.L.L.L.H.L.L.L.L.L.L.L.L.L.P.P.P.P.P.J.",
"h.h.h.g.g.S.g.g.D.D.S.S.D.D.D.D.D.D.D.D.A.S.G.S.D.G.G.G.G.G.G.G.G.F.F.F.F.F.G.F.G.F.G.F.F.G.G.F.F.F.K.K.K.K.K.K.F.F.G.F.F.G.F.G.",
"u.u.u.u.u.f.s.i.f.f.f.f.d.d.a.d.d.g.s.g.g.s.g.S.g.S.S.S.Z.S.S.S.h.d.d.d.D.h.d.D.d.D.D.D.D.D.D.D.g.g.g.h.g.g.h.h.h.h.h.D.D.D.D.D.",
"w.w.w.w.u.u.y.i.u.u.u.a.a.w.a.u.u.i.i.i.s.i.s.s.s.s.s.s.s.s.s.s.d.d.f.f.a.d.d.d.Z.Z.a.Z.Z.Z.Z.Z.g.g.g.g.g.g.h.h.h.h.h.Z.g.S.g.S.",
"w.w.q.q.1.1.y.1.y.1.1.y.w.u.w.u.y.y.y.u.u.y.y.y.y.p.y.p.s.s.p.p.p.C.p.C.t.V.C.A.C.V.C.V.V.V.V.V.C.p.p.p.p.p.t.0.p.t.C.p.V.p.C.p.",
"6.6.e.q.p.r.r.r.y.r.r.y.e.e.e.e.q.q.1.1.1.e.e.e.e.q.6.6.3.4.6.6.6.0.t.9.t.t.0.0.9.9.N.N.M.V.0.0.3.8.8.N.N.B.N.N.N.t.0.0.V.0.V.V.",
"0.9.3.-.-.X.3.3.<.<.<.5.5.5.-.3.4.4.4.4.4.4.8.8.4.4.8.0.N.7.8.5.9.9.;.;.;.9.;.;.3.5.5.5.t.5.t.9.N.N.N.8.8.9.9.5.9.9.9.9.9.0.9.t.",
"=.>.>.:.7.5.3.3.3.3.-.#.-.:.:.:.7.7.2.3.7.7.7.>.z.M.M.M.M.b.b.M.;.;.>.;.;.;.9.5.5.8.5.3.-.-.-.3.7.7.:.7.:.7.7.9.:.;.7.3.;.5.:.;.",
"z.z.x.%.%.@.@.2.@.@.@.%.@.z.b.*.x.&.l.l.n.n.n.n.m.n.c.} } j.c.c.&.:.:.b.b.>.*.:.7.7.7.7.7.7.3.*.*.&.&.>.&.#.-.#.#. .#. . . .,.,.",
"k.k.k.O.O.{ $.{ { { $.%.x.x.O.o.c.j.j.( W T T U U I K l l l P P R ~ ) ) ) ^ ~ Q Q ! ) O.&.l.$.&.v.v.v.&.:.&.=...=.=.#.#.#.,.,.,.",
"K I ( ) k.k.k.[ k.[ o.} ) ( ( W F z k j j j k k h h h h Z Z C Z B h S F F H z g z H I Y E E W E ~ Q ^ | ) [ ] ] ] ] { { ' ' ' ' ",
"f f f g z P Y E R T U P l z g f C C C C C C C M A D M M M M M M J A m m A A A S S S S S S S Z k z K l K L L L R Q Q ! / / _ _ _ ",
"p d a d a a a a a d d d d d n n n n m m n n m m m m m m m m m A m m n n m m B m D m B D D A A D F Z F F F G G G G P I I Y Y E E ",
"x x x p c c p c p x x x n c c n v v n c v v v v c c c n v v v N n n n n n n m m m n m n n m m n n B n B B D B B N N N V V V V V ",
"x x i i x x x x x x x x x x x x i p p c c c p c c c c c b c c c v v v v v v n a v n v v v v v v c n d n n v v v B B N N V N N N ",
"i i i i i x i i i x i x x x x x p p c p p i c s x c c c b c c v c c c p c v c c c v c c c c c c c c c c v v v v v N v N N N N N ",
"r i r i y y i y i r i u x y x x i p i i b i i s i s s s N e v v s s b s x x x c c b c c b c c c d x x c c c c c c c c c b c v c ",
"r r r r y y y y r r r r y y y y t y 0 u u u y u y i u i e 0 0 e i i s i b b b i b u b s x b c c x x x c x c c c v n c c v v v v ",
"y 7 r r y y y q r 7 r r q q q q r r q q y y 0 y y y q y e 0 e e y u y i u i u u b s i s i i p p x b x b x x x x b x x x x x b b ",
"7 r 7 7 7 q 7 y 7 r y 7 q q 7 e q q r 9 r q q y q y q y e 0 e 0 y 0 0 0 u y u y u u u u u u i i i i i u b b b b b b x x x x c c ",
"7 7 7 7 e 7 q q e e e e 7 e 7 7 q q q q q q q w 0 6 e 0 e 0 e 0 u 0 0 0 t t r t y u u t u u u u 0 a u s s s s s b u p u p p u u ",
", , > 1 4 4 4 4 3 6 6 6 7 6 7 7 q q q q q q e e e e e 6 6 e e w 9 9 9 9 9 r t t t t t t t r t t 0 0 0 0 u s t u u u t u t p a t ",
"= - = - - - - - * : : : > > > , , , 3 3 5 6 6 q w 6 0 w e e e e r r t t r r r 9 r r t t r r r q 0 0 0 0 0 0 t u t t t 0 t t r t ",
"= = = = - - = - : : : : : : : : * : - : : > : : : : 3 3 3 6 6 e 9 r r 8 9 9 9 9 r 8 r 8 9 9 9 q 9 9 0 w w 0 9 9 w 9 9 9 9 9 9 9 ",
": * : : - : : : : : : : : : : : : : : * * * : : : * : : : : : : ; < , 1 2 5 5 5 1 2 6 5 8 5 5 5 w w w w 2 5 w 5 2 w 2 w w w w w ",
"* : * * * - * * * * * : : * : : : : : , : : : : : : : : : : : - - ; - - > < , , 1 1 4 5 5 5 6 3 3 3 3 1 4 4 2 2 1 1 1 2 2 2 w & ",
"* * * * * * * * * : : * : : : : * * > * * : : : : * * : : : : : : : : : : : : : , 3 3 3 3 3 3 3 3 1 1 , 3 , , 3 , < , , 1 1 2 1 ",
"* * * * : * : * * * * * * * * * * : * * : : * * : * : * - - - O = - : : : : : : : > : > , , 3 > > , , , , , , , < < < , , 1 , 1 ",
"* * * * * . * * * * * . * * * * * * * * * * = = = * = = = - - - - * - - : * ; ; : * : ; : : > > > > , > , , , < > > > > > 1 > 1 ",
"* * * . * * * . . * * * * . * * O * * O * * = = = = * - - ; - - - % - - ; ; * * * ; * - ; ; : : > > > > < , 3 , > > > : > < < < ",
". * . . * . . * . * * * * . * * O * * * O = O O O = = = = = = - = - - - * * - - - * - ; - - ; : - = - - - < , , ; ; ; ; ; ; < ; ",
"* . * . . . * . * . . * * * . * * O O O - O = = = = O = = = = = = = - * - - - % O - O - - - - - - ; ; ; - ; ; ; ; ; ; ; ; ; & ; ",
". . . . * . . * . * . * . * * . O O * * O * O O O * - O - O = = % = = = O - - - - O ; * - = - - ; & ; & ; $ $ & & & & & & & & & ",
". . * . . . . * * . * * . * * * O O O O O O * * O O O O O O = = * O * % - O O * O - * * = = - % $ % & & & & & & % % % % % % & % ",
". . . . . . . . @ @ . . * . . . o O O O O O O O O O O O O = O = O * O * - O O * O * % * O * * % $ & $ = $ = ; $ % O % % % % % % ",
". . . . . . . . . @ . . * . . . O O O O O O O O O O O O O O O O O O O O O * O * O O O O * O O O = $ O $ O $ $ ; o % O % O % O % ",
"@ @ @ @ . . . . @ @ .   . . o O o o O O . o o O $ $ $ $ $ $ $ $ O O $ $ $ $ $ $ O % O O O O O % * O * O = O O O % O % $ % O % O ",
"@ @ @ @   .     . @ . . . . O o o O O o o O . O O O o O O o O O O O O O O O O O O O O O O # O $ % - O * % = = * % O O O O % % O ",
"+ + + +   @     @   .   .   .   o O O o O O o o # $ # O # O O # $ $ O $ O O O # O # O # O $ O $ O * O O O * O * O % O % O O O O ",
"+   +   .       @ @   .   . o o o O o o o o o O $ # $ # $ # o O # # o # # # $ # O # # o $ o o o O O O O O O O % O O O O $ O O O ",
"                  o           o o o   o o o o o   o o o o o o o o o o o o o o o o o o o o o o O O O O o o O o o $ $ # % # $ # # ",
"                          o     o o o o o o . o o   o o   o o o o o o o o o o o o o o o o o X o o o o o $ o o o o # # # # # # # ",
"                                o o o   . o o o o o o o o o o o o X X   X o o X o o o X o X o X X o X o o X o X X X X # X X X X ",
"                  X   X       X o o o o o o o o o o o o o o o o o o # X o # X o X o X o X o X o X X X X X X X X X X X X X X X X "
};
