/* XPM */
static char *_5707_46a2a7b1d9f980332b5c47c00803df16f51ed4b3f62faf0d4bd4a5f4e8370218[] = {
/* columns rows colors chars-per-pixel */
"64 64 219 2 ",
"   c #020301",
".  c #030906",
"X  c #010B0A",
"o  c #070505",
"O  c #0A1716",
"+  c #111D1A",
"@  c #07100E",
"#  c #1A2C2B",
"$  c #162625",
"%  c #1B312F",
"&  c #1B3333",
"*  c #1E393A",
"=  c #1C3636",
"-  c #172A2B",
";  c #243D3C",
":  c #263837",
">  c #222E2D",
",  c #13221F",
"<  c #29403E",
"1  c #31403D",
"2  c #273F40",
"3  c #0B3E69",
"4  c #264042",
"5  c #2B4345",
"6  c #2D4648",
"7  c #2D484A",
"8  c #324544",
"9  c #334A4B",
"0  c #394E4E",
"q  c #334846",
"w  c #364E51",
"e  c #3B5253",
"r  c #3D5758",
"t  c #0D446D",
"y  c #0F4B73",
"u  c #0F4E79",
"i  c #104C75",
"p  c #104F79",
"a  c #104770",
"s  c #0F537C",
"d  c #11527D",
"f  c #10456F",
"g  c #435453",
"h  c #445C5C",
"j  c #4A5D5D",
"k  c #475856",
"l  c #535958",
"z  c #47615F",
"x  c #53605F",
"c  c #4B5E60",
"v  c #465C60",
"b  c #466261",
"n  c #4B6262",
"m  c #4D6667",
"M  c #536465",
"N  c #5A6565",
"B  c #546A69",
"V  c #5D6C6C",
"C  c #576867",
"Z  c #5B716E",
"A  c #646C6B",
"S  c #6A6D6C",
"D  c #616566",
"F  c #6E716E",
"G  c #66716E",
"H  c #72726F",
"J  c #6A6E71",
"K  c #6C7272",
"L  c #677675",
"P  c #737473",
"I  c #7C7B7B",
"U  c #787679",
"Y  c #867B7D",
"T  c #7E807F",
"R  c #0F5982",
"E  c #0F5680",
"W  c #115682",
"Q  c #115A85",
"!  c #125D8A",
"~  c #0F608B",
"^  c #12618D",
"/  c #136592",
"(  c #146996",
")  c #166B99",
"_  c #1A6D9B",
"`  c #196797",
"'  c #1B719E",
"]  c #17709C",
"[  c #21749F",
"{  c #1D75A2",
"}  c #2375A2",
"|  c #257AA6",
" . c #2B7AA5",
".. c #2B7DA9",
"X. c #2779A6",
"o. c #327CA6",
"O. c #337EA9",
"+. c #397FAA",
"@. c #397EA7",
"#. c #847D83",
"$. c #897E84",
"%. c #9A7E8D",
"&. c #2E81AC",
"*. c #3481AC",
"=. c #3C83AD",
"-. c #3C86B0",
";. c #3B88B2",
":. c #2E83B1",
">. c #4284AE",
",. c #4986AE",
"<. c #4486B1",
"1. c #438AB3",
"2. c #4A8AB5",
"3. c #4E8CB7",
"4. c #528BB5",
"5. c #5B8DB5",
"6. c #548DBB",
"7. c #5B8EBA",
"8. c #5187B3",
"9. c #5690BD",
"0. c #5D91BD",
"q. c #6391BC",
"w. c #6C93BC",
"e. c #7495BD",
"r. c #7B96BE",
"t. c #638FB8",
"y. c #7E8281",
"u. c #5E93C1",
"i. c #6494C1",
"p. c #6B96C1",
"a. c #6F98C4",
"s. c #6798C3",
"d. c #7197C2",
"f. c #7499C3",
"g. c #7C9AC4",
"h. c #858285",
"j. c #8A8186",
"k. c #8D848A",
"l. c #8D8B8D",
"z. c #93858D",
"x. c #98868E",
"c. c #8E8E90",
"v. c #958A92",
"b. c #9B8B94",
"n. c #9B8A96",
"m. c #9C9196",
"M. c #A38C95",
"N. c #A48D99",
"B. c #AC8E9C",
"V. c #A48994",
"C. c #A69299",
"Z. c #8496BC",
"A. c #AD93A4",
"S. c #BD9EA9",
"D. c #B699A6",
"F. c #BCA1AE",
"G. c #C09EAC",
"H. c #C9A7B8",
"J. c #D3A6BC",
"K. c #D4ABBC",
"L. c #DAADBE",
"P. c #D2A1B7",
"I. c #DAB1BF",
"U. c #C2A2AF",
"Y. c #829CC4",
"T. c #8B9CC5",
"R. c #8A9EC8",
"E. c #879EC8",
"W. c #959DC5",
"Q. c #969FC9",
"!. c #989FC9",
"~. c #A29FC7",
"^. c #8BA0C8",
"/. c #9BA1C7",
"(. c #95A0CA",
"). c #9BA1C9",
"_. c #A5A4CC",
"`. c #ACA5CC",
"'. c #B3A6CD",
"]. c #BBA9CD",
"[. c #B9A7CB",
"{. c #A7A6D0",
"}. c #B3A9D3",
"|. c #BDABD3",
" X c #B8A7D3",
".X c #CEA7C6",
"XX c #CAAAC6",
"oX c #C4A6CA",
"OX c #C3ABCB",
"+X c #CBABCB",
"@X c #C6A6C7",
"#X c #D3A6C4",
"$X c #D3ABC4",
"%X c #DBADC2",
"&X c #D3ACCB",
"*X c #DCADCB",
"=X c #D4A7C8",
"-X c #D5B1CB",
";X c #DCB1CC",
":X c #D8B2C5",
">X c #C5ADD4",
",X c #CBAED5",
"<X c #C1AED8",
"1X c #C9AED9",
"2X c #D4AED2",
"3X c #DAAED1",
"4X c #CCB1D8",
"5X c #CBB1D6",
"6X c #D3B1D4",
"7X c #DCB3D5",
"8X c #D6B3D8",
"9X c #E2ADC2",
"0X c #E3AECC",
"qX c #E9AECC",
"wX c #E5B2CC",
"eX c #E9B1CB",
"rX c #E2B4D5",
"tX c #E1B4D8",
"yX c #E1AFD2",
/* pixels */
"s E W s d d s d d s d d d d d p u W u u u u u u u u u u u u u u u u f u u 3 u a f a a f f a a a t t t t t t t t t t 3 3 3 3 3 3 ",
"E E E s d d d ~ d d d d d d p d u u u u u W u u W u u u u u u u u u u u 3 W u u u a i i y y a a y y y t a y a a t t t t t t 3 3 ",
"Q Q R E d ^ ^ d d d Q W W W W W W W W W W W u W W u W W W u W u u u u u p p u u u a u W u u i u y y y y y y y y t a a a a a a a ",
"^ ! ! ! ^ d ^ d ~ Q Q Q Q Q Q Q W W W W W W W W W W W W W u W u u u W u p p W p u u W 3 p u p p u y u u i i i i y y y y a y y a ",
"! ^ / ^ ^ ^ ^ ^ ! ! ! ! ! ! ! ! ! W ! W ! W ! W W W ! W W W W W d d W d W W d p W E E u E E E E s p s s i p s d p p p d y i i i ",
"~ ^ ^ ^ ^ ^ ^ / ^ ^ ^ ! ! ^ ! ! ~ ! ! ! ! ! ! ! ! ! ! ! ! ! ! ! Q Q Q Q W W W W W W W W W E E W s s s s s s s s p d p d i i p p ",
"` ^ ~ / / ^ / ^ ^ / / / / ! ` ^ ~ / ~ ~ / ~ / / ! ! / ! ! ! ! ! Q Q ! ! ! ! ! Q W ! ! W W W W Q s s s ~ s s s s d d s s d d d d ",
"X._ ^ / ` ( ( ^ ` / / ` / / / ` / / / / / / / / / / / ! / / / / ^ ^ ! ! ! ! ! ! ! ! ! ! W W ! ! R ~ s s s s ~ s d d s d d s s s ",
":.:.| ) / ( ) ( ( ( ( ( ( ( ( ( ( ( / / / / / / / / / / / / / / / / ^ ^ ^ / ^ ^ ^ ~ ^ ! ! ! ! ! s s s s ^ s / s d d ^ s s d ^ s ",
"{ { { ) ( { ] ) ( ( ( ) ( ( ( ( ) ) ( ( ( ( / / ( ) / / / ( / ( / / / / ^ / / ^ / / ^ / / ! / ! &.s &.( s ( s s s ` s s / d d ^ ",
"( ] { ) ] { ] ( ) ] ) ] ] ] ( ( ) ) ) ) ) ) ) ) ( ( ` ) ` ` ` ` ( / ( ( ( ( / / ( / / / / / / / s ~ ] s ] ~ s ( ] s ( ] d ` / ^ ",
"{ { { ] { ] { ] ' ' ] ' ] ] ] ] ) ) ) _ ) ) ) ) ) ) ) ) ) ) _ _ ( ( ( ( ( ( ( ( ( / / / / / / / s &.s ( ~ ( ^ ^ ^ ^ ^ s ` d ^ ^ ",
"| | | ' ] { { { ] ] ] ] { ] ] ] { { _ { _ { _ { ) _ _ _ _ ` _ _ ) ) ) ) ) ) ) ) ) ( ) ( ( ( ( ( ~ ~ ( ~ ^ ^ ( ^ ^ ^ ^ ^ / ^ ` ^ ",
"X.X.X.X.&.{ { &.&.&.] ] { &.] &.{ { { { { } { { { { } { ' ' _ _ ] ] ] ] ] ) ] ] _ ) _ ) ) ) ` _ &.~ ~ &.` ` ( ( / ` ` ` / ` ^ ` ",
"O.....O.&.&.&.] &.] &.&.&.&.&.&.X.{ X.X.X.X.X.X.X.X.X.} } } { | { { { ' ] ' ' ' ' ' ) ' _ _ _ _ ( ~ ( &.] ` ` ` _ ` ` ` ` ` ` ` ",
";.O.:.:.&.&.:.:.&.:.] &.&.] &.&.:.X.X.X.:.X.....X.X.X.X.X.X.X.X.} { | { ' ' ' ' ' ' ' ' _ ' ' _ ] &.( ~ _ ] _ _ ` _ _ ` ` ` ` [ ",
";.;.;.;.;.;.O.O.O.O.:.....:.O.O.O.:.O.O.O.O.O.O.O...O.....O...O.o.O. .o. . . .X. .} } } [ [ [ ' &.&.( ] [ [ [ _ ` _ [ ` _ [ ` ( ",
"1.;.1.;.;.;.1.;.+.O.u.O.-.1.<.-.-.1.;.;.;.;.+.;.-.+.+.+.+.+.+.+.+.+.+.O.=.O.@.@.O.O. .X.o. . .X.&.( ] &.[ [ [ [ [ [ [ [ [ [ [ [ ",
"u.u.;.1.1.1.1.;.+.u.<.<.2.1.<.-.<.-.<.<.u.+.1.+.<.-.=.<.-.<.-.<.-.+.=.=.=.=.=.O.+.O.O.O.o.o... .[ &.&.&.[ [ [ [ [ [ [ [ [ [ [ _ ",
";.;.;.1.1.2.2.2.2.3.3.<.3.2.2.2.2.2.3.2.+.1.+.u.2.<.<.<.<.<.<.<.<.<.<.>.>.>.>.=.-.+.+.+.O.+.O...*.&.&.] o.o.@.[ &.[ o.[ [ [ [ [ ",
"3.3.3.6.u.3.3.u.6.6.u.u.u.u.u.u.6.6.6.6.u.<.3.3.6.3.2.8.3.4.4.2.2.2.<.2.2.1.1.,.2.>.+.<.>.>.+.+.*.=.=.*.*.@.o.@.o.o.o.o.@. . .[ ",
"u.6.u.6.u.2.2.u.7.7.6.u.u.u.u.u.u.u.7.7.u.u.u.u.7.6.7.6.7.7.6.6.6.6.4.4.4.3.2.2.2.2.2.2.<.8.2.2.=.,.,.,.>.@.@.@.@.@.o.o.@.o.o.*.",
"u.u.u.7.7.7.u.u.7.7.7.u.u.u.i.i.i.i.u.i.u.i.u.u.i.q.q.7.7.i.q.0.7.7.7.4.7.5.7.8.8.8.8.8.8.7.8.8.,.,.5.,.,.,.,.,.,.>.,.=.=.@.>.=.",
"i.u.p.i.i.u.i.u.p.i.i.u.7.u.i.i.q.p.p.p.d.p.p.p.p.p.p.p.p.p.p.p.q.t.t.t.t.t.7.7.5.5.5.7.5.5.5.5.5.t.t.t.5.5.5.5.8.8.,.,.,.,.,.,.",
"a.a.a.a.s.a.a.s.a.a.a.a.a.a.d.f.d.e.d.d.f.f.f.f.f.f.f.f.f.f.f.f.r.e.e.f.w.w.w.w.w.d.p.w.p.w.p.p.w.w.w.w.w.w.w.s.t.t.5.5.5.5.5.5.",
"g.f.g.g.g.g.g.g.g.g.g.g.g.g.g.g.g.g.g.g.Y.g.g.g.E.Y.g.^.Y.g.g.Y.Y.Y.g.Y.Y.Y.Y.Y.g.g.Y.g.g.g.g.g.r.r.r.r.r.e.e.e.e.e.w.t.e.t.t.t.",
"E.E.^.E.^.E.g.^.E.E.^.^.R.E.R.R.Y.T.T.T.R.R.R.R.R.R.^.^.T.R.R.T.^.T.^.T.^.^.^.^.R.Q.R.R.T.T.T.T.Z.T.Z.Y.Z.Y.Z.Z.Z.r.r.r.r.r.r.e.",
"(.(.(.(.(.(.(.(.(.(.(.(.(.Q.Q.Q.Q.Q.Q.!.(.!.!.(.Q.(.(.(.!.!.!.!.(.W./././.)./.).!.!.!.!.!.!.!.!./.W.W.W.W.W.W.T.T.W.W.W.Z.Z.Z.Z.",
"{.{.{.{.{.(.{.(.{.{.{.{.{.{._._._._.{.{.{.{.{.{._._._.{._._._._._._._._._._._._._._.{.{.{._._._._.).).{././._././._.!.!.F./.(.Z.",
"}.{.}.}.}.}.}.}.}.}.}.}. X}.}. X}.}.}. X}.}.}.}.}.}.}.}.}.}.}.}.`.'.'.'.'.`.`.'.`.`.'.`.`.`.`.{.`.F.{.{.`.`._.`._._.`._.)._._._.",
"<X<X<X<X|.<X|.<X<X<X<X<X<X<X<X|.|.|.<X|.|.|.|. X|.|.|.|. X X|. X].].|.}.].].}.].'.'.[. X'.'.].'.'.'.'.`.`.`.'.'.[.`.`.`.`.`.`.`.",
"<X4X4X<X4X4X<X4X<X<X1X1X1X1X1X1X1X1X1X1X1X1X1X1X1X1X1X>X1X<X>X<X|.|.|.|.|.>X|.|.>X].|.].|.].].].].].].].[.[.[.[.[.[.[.[.[.[.[.[.",
"8X4X4X8X4X4X4X4X4X4X4X4X4X5X5X5X1X1X6X4X5X,X2X,X,XOX+X,X+X+X+X+X5X>X>X>X].OX].OXOX>XOXOX>XOXoXoXOX[.[.@X[.OX[.[.[.[.[.[.oX[.oXoX",
"8X6X6X6X7X2X7X6X6X6X8X8X6X6X6X6X2X6X2X2X2X2X2X6X2X6X6X-X6X6X+X+X-XOX+X+X+X+X+X+X@X@XoX+X+X+XoX@XOX+XXXOXoX@XXX@X@XXXoXoXoXoXoXoX",
"tX7XtX7X7X7X7X8X7X7X7X7X7X7XrX7XtXtXrXtXtXtX7X7X7X7X7X;X6X;X7X7X-X-X-X7X3X6X6X-X2X2X2X&X=X&X2X2XXXXXXXXXXXXXXXXXXXXXXX+X.X@X@X@X",
"rXtXrXtXtXtXrXrXrXrXrXrXrXtXrXrXtXtXrXrXrXrXrXrX7X7X7X7X7X7X7XrX7X7X7X;X*X3X;X;X3X*X*X&X=X=X=X&X+X+X:XXX+X=X+X+XXX.X#X.X.X=X.X.X",
"rXrXwX0XwX0X*XrX0XrX0X0XeXqXqX9X0X*X*X;X;X;X;X-X;X-X-X-X-X-X-X-X*X0X0X0X*X*X*X*X#X*X*X;X7X*X3X&X-X$X$X.X$X$X$X.X#X#X#X#X#X#X#X#X",
"wXwXeXeXwXeXeXeXeXeXeXqXeX9XqXeX0X0XwX;X%X;X*X;X;X;X;X;X-X-X-X;X*X0X*X*X*X*X*X0XwX;X#X$X.X$X&X+X-X-X$X$X$X&X=X#X:X$XK.K.#XJ.#XJ.",
"wXwXwXwXwXwXeXeXeXeXeXeXeXeXeX9XeXeXeXeXeXeXeX0X9X9X;X*X9X*X*X*X*X%X&X$X:X:X$XXX+X[.F.A.A.A.D.F.H.XXH.@XH.U.H.J.J.J.K.K.K.K.P.J.",
"I.I.:X:XL.L.L.L.L.L.9XL.9X9X9X9X9X9X9X9X9X9X%X%XP.P.J.J.#XK.#X%X$XH.U.F.F.H.F.D.F.A.N.N.m.m.n.n.v.V.N.N.%.%.n.B.F.U.U.H.H.K.H.P.",
"D.B.B.B.B.S.K.I.K.I.K.I.I.I.I.L.I.K.K.U.U.S.S.B.B.B.B.B.B.A.A.A.A.A.N.N.N.N.n.n.m.m.n.m.n.n.Z.n.b.v.v.v.b.b.x.z.z.x.x.V.V.M.D.G.",
"C.M.M.M.C.M.B.C.S.S.S.S.S.G.S.S.D.S.D.B.C.V.V.V.B.M.M.N.V.M.V.V.x.n.x.n.n.n.n.n.n.v.v.c.c.c.k.k.k.k.k.k.j.j.j.#.$.Y Y Y Y Y Y Y ",
"j.l.v.m.m.C.C.m.C.m.m.m.M.C.C.C.M.M.C.M.M.M.B.B.C.B.M.M.M.M.V.x.x.x.x.x.v.%.l.%.z.$.k.k.v.$.%.#.h.h.h.T I I I I I Y U P H H Y H ",
"l l x D S H H H T T j.j.j.j.j.l.M.M.C.C.M.M.M.M.b.b.m.M.n.b.b.v.b.v.b.x.v.l.%.$.z.z.$.$.$.$.#.#.y.y.T I P P P P F F H H H H H H ",
"k g g k g k l l l x D D D D D S S F P T Y l.l.c.c.c.c.c.c.l.l.k.$.$.$.$.k.z.%.v.v.l.%.%.#.$.#.#.T I I U P F F F F G F S S S A A ",
"k z k k k k k k z x x x C C V V V Z G Z G G C T G G G G A A A A J J J K K U U U U #.#.$.#.#.#.#.U I U P P H F F P P K K H S S S ",
"z z z B z x z z z k h k j j z l x M B C C Z C G G A A A A A D A V C N N V V V D V J J J U U #.U P H H H P S P S S S S S A S S D ",
"B B z B z z z z z z h h h z z z z z x z x M x x C C M M C N V A V V V Z V V V N N N M N V V V J F F F H P P K K K K G G G G A A ",
"T T z z m n n n n n v v b b m m b b b m b m b b n n n n v m m m M M M m M c m m c M M c M c c c C M M M x x C x Z Z Z Z A Z A Z ",
"z z T z m B C z n n m m m b v r b b b b b z b b h v h h v v v v v v v v v v v v v v v v v v v v h h h k z r g r e g g r g h k z ",
"T T z z B V C c n c c v c m m m b z z h z b r h h r r e r r r w v w g e e e r w e e v e e e r r w 0 0 w 0 0 0 0 0 0 0 0 q 0 0 q ",
"@ < z T L A V C B B B M m m m v b b h h h r r r r r e e w w w w w 2 w 2 w 2 7 w w 2 2 w 2 2 2 2 9 9 9 9 9 9 9 1 q q 1 q q q 8 8 ",
"@ .   O : k N V N N M M c c c c j h k h r r e e w w 9 9 7 7 7 7 2 2 2 w 2 2 2 2 2 2 2 2 2 2 4 4 < < < < < * < * < < < 5 8 q 8 1 ",
". .         + > g k j l c k g e g g e e e e e w w 7 6 6 6 7 4 4 2 2 2 2 4 * 2 2 2 2 * * * * * * & = = : = < < < < : : : : > # $ ",
".                 X > 1 k l k k g 8 0 0 q q 2 8 5 4 4 2 4 4 * * * * 2 * * * = * * * * * & & = = & = & = % % % - $ , O O @ X .   ",
"                .       . + > ; g 2 2 2 2 2 2 : ; ; ; * * * * * = = * * = & & & & - & & & & & & = = % # , O @ . .       .   . . ",
"o o o                           O $ # : 2 : : : > & : = : = & & & & - & - - & & & & - & & & = = $ + X X   . . . . .       X     ",
"    o o o                           . X + > : ; : & % # - # & % & - & & & & & - & & & > # $ O O X X X   . . . . .   o     o o o ",
"o     o o                       .         . X O $ # > > % # $ $ - $ - - - - - - - $ , + O X X   X     X . . o       o       o o ",
"o   o   o                                         X @ + , # # # - $ - $ $ $ , , O @ X       X X X X X   X   o     o o o o   o o ",
"                      o                     . o         . X O + + + + O O @ X X .     . X   X             .     o       o o o   ",
"                                o               o .               .                   . o o           X .           o       o   ",
"                                    o                     o             . . . o o o               . o . .     .     .           ",
"                        o     o o o                                                   o o o o o             . . .   . .         "
};
