/* XPM */
static char *robert_bye_GgMm_KNhofg_unsplash_adobespark1625671027[] = {
/* columns rows colors chars-per-pixel */
"96 64 240 2 ",
"   c #150E0C",
".  c #1A0E07",
"X  c #15110E",
"o  c #1C130C",
"O  c #1D1207",
"+  c #140E12",
"@  c #161313",
"#  c #1B1513",
"$  c #1C1916",
"%  c #161419",
"&  c #1B161A",
"*  c #1D1A1B",
"=  c #0F0D0F",
"-  c #22150C",
";  c #24190E",
":  c #2A1B0B",
">  c #261506",
",  c #351B0B",
"<  c #221613",
"1  c #231A14",
"2  c #2A1C14",
"3  c #211719",
"4  c #231C1C",
"5  c #2A1E1B",
"6  c #2C1611",
"7  c #331D13",
"8  c #341D15",
"9  c #200F08",
"0  c #3A230C",
"q  c #2C2115",
"w  c #25211D",
"e  c #2B221D",
"r  c #2A2518",
"t  c #342314",
"y  c #33231C",
"u  c #3B251C",
"i  c #352A1C",
"p  c #3C2A1B",
"a  c #3C2614",
"s  c #2F200B",
"d  c #1E1C22",
"f  c #1B1924",
"g  c #231E22",
"h  c #291F22",
"j  c #231F2A",
"k  c #1F2129",
"l  c #252123",
"z  c #2B2424",
"x  c #2C2925",
"c  c #25232A",
"v  c #2B252A",
"b  c #2D292B",
"n  c #322524",
"m  c #342A25",
"M  c #3B2B24",
"N  c #31272A",
"B  c #332B2B",
"V  c #3A2D2B",
"C  c #392623",
"Z  c #34312D",
"A  c #3C312B",
"S  c #3C3125",
"D  c #2D2A32",
"F  c #332D31",
"G  c #382D32",
"H  c #353134",
"J  c #3B3334",
"K  c #3A343B",
"L  c #38353B",
"P  c #471C06",
"I  c #48240D",
"U  c #552B0D",
"Y  c #432A1D",
"T  c #4A2C1C",
"R  c #452715",
"E  c #552D16",
"W  c #4A331D",
"Q  c #54321C",
"!  c #5B331B",
"~  c #593619",
"^  c #66391A",
"/  c #733E1B",
"(  c #692E11",
")  c #432C23",
"_  c #4B2E23",
"`  c #422C28",
"'  c #443325",
"]  c #4C3324",
"[  c #44332C",
"{  c #4A382B",
"}  c #533423",
"|  c #5C3A24",
" . c #543B2C",
".. c #583828",
"X. c #433634",
"o. c #453932",
"O. c #483937",
"+. c #573C34",
"@. c #532F21",
"#. c #633D2A",
"$. c #673B24",
"%. c #723E25",
"&. c #683D33",
"*. c #6D421D",
"=. c #74431D",
"-. c #7B441D",
";. c #7A4517",
":. c #584438",
">. c #564131",
",. c #6A4428",
"<. c #784626",
"1. c #654737",
"2. c #754B35",
"3. c #755238",
"4. c #3A3944",
"5. c #443C42",
"6. c #3D4145",
"7. c #474448",
"8. c #564A49",
"9. c #555258",
"0. c #694C44",
"q. c #695547",
"w. c #775747",
"e. c #675856",
"r. c #735A57",
"t. c #754F44",
"y. c #7B6558",
"u. c #585B66",
"i. c #756B70",
"p. c #685C63",
"a. c #833F1A",
"s. c #864A1B",
"d. c #97551A",
"f. c #954F17",
"g. c #A45A1B",
"h. c #B2691D",
"j. c #844B24",
"k. c #874927",
"l. c #8C5223",
"z. c #89542B",
"x. c #985828",
"c. c #895636",
"v. c #985B36",
"b. c #8E4E2C",
"n. c #A35D24",
"m. c #A25E39",
"M. c #9D612C",
"N. c #9A6339",
"B. c #AC6323",
"V. c #A76629",
"C. c #B66B27",
"Z. c #BA7329",
"A. c #A86837",
"S. c #AD733B",
"D. c #B97737",
"F. c #B36E36",
"G. c #C4792A",
"H. c #C47C37",
"J. c #C26F29",
"K. c #8D5D47",
"L. c #9A6847",
"P. c #896A59",
"I. c #966457",
"U. c #A56B47",
"Y. c #AB7448",
"T. c #B67A46",
"R. c #A87856",
"E. c #B27351",
"W. c #8D726D",
"Q. c #A57C67",
"!. c #C37C45",
"~. c #BD863F",
"^. c #C98528",
"/. c #CB962A",
"(. c #D2952D",
"). c #CB8736",
"_. c #D28A35",
"`. c #D69936",
"'. c #CB9236",
"]. c #D8A63A",
"[. c #CFA233",
"{. c #D3982F",
"}. c #BB8449",
"|. c #BC8558",
" X c #BF995B",
".X c #B28971",
"XX c #C78847",
"oX c #C68A57",
"OX c #CC9456",
"+X c #D59857",
"@X c #D2944A",
"#X c #DBAA46",
"$X c #D8AD53",
"%X c #E6B856",
"&X c #E4AF50",
"*X c #C99566",
"=X c #D89A67",
"-X c #C59670",
";X c #D8A56D",
":X c #E4A565",
">X c #EAB86D",
",X c #E6C257",
"<X c #DDC56C",
"1X c #E7C766",
"2X c #F6CA79",
"3X c #ECD376",
"4X c #7F7E83",
"5X c #907E81",
"6X c #7F8190",
"7X c #978586",
"8X c #8D888B",
"9X c #AB938A",
"0X c #B2AFB5",
"qX c #BFA596",
"wX c #D1AF8E",
"eX c #D9B69D",
"rX c #ECD493",
"tX c #F1E393",
"yX c #DBC3A7",
"uX c #E8D3AF",
"iX c #F4E4AD",
"pX c #DEC293",
"aX c #B1B6C1",
"sX c #BAC1CB",
"dX c #DCCDCB",
"fX c #D0CDCE",
"gX c #E6D7D2",
"hX c #F7E8CA",
"jX c #F7EAD8",
"kX c #F5EDD9",
"lX c #DCDDE2",
"zX c #DEE2E5",
"xX c #DCE3EA",
"cX c #E2E5E6",
"vX c #EBE9E6",
"bX c #E2E5E9",
"nX c #EBEAEB",
"mX c #E7E8E8",
"MX c #F2EAE8",
"NX c #F3F0F0",
/* pixels */
"l @ = $ @ % @ % % @ * k k k * * d x c c b b v v * & h D v & g h h F D h G C N 4 r d f 6XxXxXzXzXzXcXxXxXxXxXxXzX9.L H N D D 5.4.L h g N h g D D g * g d & d c v $ $ b g # h z 3 X X k = k k w $ ",
"@ X @ @ % $ @ @ % @ * k c w f d d d d d g k g v d * h v b g g h b N b h N N N z $ x k i.lXzXzXcXzXzXxXxXxXxXxXxXu.L L N v D G G L x h F h j F b D N j v * z b 4 w w F g h j z 4 w $ w % * d $ $ ",
"= @ * $ % $ $ @ = % * w k c d k d x c c c c v b l j v v N v v b b b b j n n N z w c % u.lXzXzXxXbXcXcXxXxXxXxXxX9.H H N v N 4.G H x x b v h D D v z g z g g N l w 1 l g g g l w * @ * d * * d @ ",
"X X * X = @ % @ % % d k c c w d d c c l g l v c N v b b N N D F b b b h h w B B * k f 6.lXzXxXxXbXcXbXbXbXxXbXbX9.F F b h j 4.G Z x k x h v N F b l z g z 5 z n w w l l h 4 z w w d * d % k k $ ",
"* $ * $ @ @ & * & & g g l l & % g c d & * l l v % & g v v % * g b b N v h 5 v B x * 6.aXxXnXxXbXcXcXcXbXbXxXbXbX9.F Z x h v G G Z D x x x l b b l z n z z V h B z x b l v h b 4 x x w * * d l d ",
"X = X X X X @ @ + & g g l l * & l c l d g c v b * * v N N & 4 z b N F z h 3 w N r x u.0XxXmXbXbXcXmXcXcXbXnXnXbX9.H H z v v G K Z x k w l w b b F 4 & n V e.X.n w 5 b g j g v 4 * l l % * k w % ",
"X = X % @ % @ @ @ @ d g l g d * g v l l v v v l * & g z l # * b b b N b N 4 w V Z r u.sXmXmXbXnXmXvXcXcXnXnXxXlX7.B H z v b G K Z w * l w d b H w 4 4 z 4 X.V n 5 1 l 3 * g l * X $ l @ * k d % ",
"$ @ $ $ $ $ $ @ & & g g g g * * l g g g c l l x g * z b b 3 g l b x N z N 5 w A A x u.sXxXmXbXbXcXvXvXvXnXbXzXfXK Z J z v x B J H w w b l w B b N 4 4 5 4 5 m m z 1 z g * c l 4 w o l @ @ d c % ",
"@ X @ @ @ @ @ $ @ & w l l l l l l l v v g l l l b x x b b b b Z B Z b m N m x A A e u.sXlXnXnXnXnXnXNX8Xp.4Xi.p.5.J J z z N H J F g 4 v v g v F b 4 4 4 h 5 V B z 4 4 4 g c c g * # w o # 4 g * ",
"# @ @ # # $ & & & * l l g g * * l l l d & l v v g w v b z l l x Z Z B n n m m m A m 6.0X8Xe.fXnXnXbXNX8Xp.p.p.p.X.J J z z N F J F F G V N F F v b v v v v h n z z 5 z l l c l g & 2 e 1 4 4 l f ",
"@ @ @ $ $ $ $ & $ 4 v l z g & # 4 l l @ $ 4 l l & * l x z * w z x B V V m B S e o.S i.sXW.9.fXnXnXnXnX5X4Xi.W.i.X.V F z x N F J J V B B N N F F v v b b x z z w w 5 z l g c b g v m ; O - x v h ",
"# @ @ # $ @ % & # * l v l l % + d x l w l l l l w l x b l 4 l x x N B V B A m y p A 6XsX8Xp.dXvXNXnXnX5X5X5X5Xy.[ V V n n N A J V z z z v h v N v 4 g * 4 * N v 4 4 l * & c c g # 1 i O   5 g 3 ",
"@ # @ # $ @ # # & * l l l l $ # l l l & w * 4 l l x b x l w x b Z Z m M m V M m M ' W.0X8Xe.fXvXvXMXgX7X5X5Xr.[ [ M S m m m G X.Z m z z z z z x b 4 g 4 l 4 n z < 4 w * $ c c l o - t ; q 1 3 & ",
"X @ @ # @ # @ $ & & w w l l 4 g x l l l l l w v 4 l x l w l l z x r n V B V M M  .m 8X0X7Xi.dXMXMXMXzX9X9X5Xr._ [ p S m m m V J X.Z z m e z B B b 4 l n n h z z 5 1 w * % k c l h - t 0 { 2 4 3 ",
"@ @ X @ @ @ @ # @ $ * 4 * * * l * 4 w * * * 4 * * 4 w l w w w x w r m C M A M ` ' M i.0XW.r.dXMXMXMXgX9X7XP.0.) ] Y ' p m m X.X.A r w i e w x Z m 4 4 4 4 < z n 4 4 4 * % w c 4 < < p p >.; < # ",
"# $ @ # $ # # $ * * l l l l 4 * w l l l 4 v x l w w l x x w x x Z S m e m S [ ] } ' i.0X7XW.dXNXNXMXlX9X7Xw.1.Y } ) ' p M M ` X.Z S x m x x B x z z y z z 4 n 5 5 5 z 4 * l c l < 6 ' 2 S q 4 & ",
"@ # # # $ $ # # # h h h h g X X w x * $ $ m z 4 % $ x x * $ $ S M ` [ V C [ ..} | Q r.eX9XP.dXMXNXcXgX9X.X:.>.W ] ]  .' u ' ' A S S i Z Z r x x x w x m z z z 5 w z z h v h h h z 1 e 2 1 1 < 3 ",
"# # & # # < # < & h h h l 4 $ $ w l w 1 < x z 4 * * x x $ $ r A [ [ X.M p ] | $.%.^ &..XQ.P.dXvXnXMXgX9X.X3.~ ~ | W ..] Y ] ) ' M i 1 w w w z z x 4 4 4 1 4 w z 4 4 4 g h g g g < # w 5 4 4 3 4 ",
"@ # # # < $ # < # h h N N 4 # # l l * $ < 5 z 4 $ * x x r $ ; S o.o.' ' W Q $.<.<./ <.L.L.L.gXvXMXMXgX9X.X,.^ ^ ,.} | } } _ T ' S A m B b N H b N z n m l z v v w e l h g h g z 4 4 4 & # < 3 3 ",
"@ # @ @ o < # # 3 h g 3 g 4 * 1 w w * $ < 4 h 4 $ * k x w r r r i t R Q ~ ! / <.<.s.z.M.S.L.uXMXMXMXeX9X|.3.*.*.*.~ | ~ Q Q ) ] [ X.A J Z B b b N v b V N b N v n z n h 5 v 3 h n z 5 1 @ < 4 3 ",
"@ @ o # # # # # & 3 3 3 & * & 4 * $ & * 3 3 * * * * * * w 5 8 u ) T E ^ / / / <.l.l.V.A.D.Y.uXvXNXdXqX.XR.c.;.;.<.=.^ ^ ! ! ..} >.o.J V V B b b b z N N n b x n m w n z z N 3 5 4 4 1 4 $ # # o ",
"@ X $ X # o $ # & h h D N b z l v z z z b N v b Z b Z Z V [ [ ] +.2.k.j.j.s.s.s.x.d.V.Z.H.T.yXvXMXdXwX-XY.M.d.s.l.;.<./ ^ $.#. . .p y e w w 4 w 3 4 $ 1 & < * 1 $ o < < < 3 @ < o   # 1 1 X     ",
"@ @ @ # o # o # & 3 h h g z z 4 4 v g h z x l b c x F A M ` +.+.&.c.b.k.x.f.l.l.M.S.D.Z.H.XXyXMXMXdX-X*XS.M.n.F.V.s.j.;.=.^ $.W R t t q e e < r 1 1 : < 1 < < < < o - < 5 < # < < o o 1 < o # @ ",
"@ @ # X # o # # # 3 h z g l 4 & & l < & * l * x d w b B 8 p &.0.0.2.k.d.x.f.f.x.V.@X&XZ.H.oXyXMXMXuX-XoXD.C.D.:X~.x.l.;.=.^ ^ E R a R t q t q r 1 1 ; ; - ; ; < ; o < < 4   < o X X X 1 <   o o ",
"$ @ # $ # # $ # < 4 l z l v h 4 4 z 3 & $ w @ Z * x Z S 8 _ R ..1.2.<.s.s.f.B.F.h.G.^._._.@XeXjXkXyX X~.H.J.G.H.C.x.f.s.s.*.*.U R I 0 0 i s q r ; q 2 ; : ; ; 2 ; 2 - 1 5 4 # < $ O o r $ X o o ",
"& % # @ @ X $ $ $ 4 h v v l g & l w 3 < 4 v 4 b * l Z S 8 T _ @.1.2.*.s.f.f.g.g.h.^._.(._.@XpXjXhXyX$X~.).G.G.J.C.g.x.l.s.;.;.~ E U W a p p t r ; q 2 : 2 2 1 r 2 q 1 1 5 < # o O $ ; r r O O X ",
"@ @ @ @ o $ # X 3 3 4 h z l 4 # * # 3 # # 1 4 1 4 w i e 8 T 2.$.~ ^ / l.d.g.B.C.h.^.(.[.`.OXpXhXhXrX$XXX`.).G.J.C.B.V.d.s.;.l.*.^ Q Q R a a u y q r 2 ; 1 2 5 y e t 2 2 5 1 < - ; ; O ; r ; 1 - ",
"b D l % @ # # # # # & 3 g l 4 @ @ # 1 4 $ $ 1 4 1 1 q t R R #.$.^ ^ =.x.n.n.h.J.G./.(.[.#X$XrXhXkXuX$X#X`._._._.G.B.B.x.d.x.M.=.,.U E I R t ; u t 2 2 2 2 e 5 y 2 2 < < < < 1 o X O O O [ - > . ",
"D D c @     X X     # & g g * # X o # # 1 1 1 4 1 1 q s a I I E ( / a.d.n.Z.H.G.^././.[.$X<XiXhXkXuX<X%X#X{.(.G.G.h.C.B.g.n.M.;.<.U ~ I R 0 s i 2 : 1 ; ; ; 2 e 2 - - 1 < o # o O X O O :.O O O ",
"% % % @ @ @ # o + + & 3 4 g 4 o $ w $ 1 r 4 1 y e y p Y Q | ! / <.b.x.n.B.J.G.G.^./.[.].,XrXiXkXkXiXrX1X].].(.^.^.Z.J.C.g.V.M.s.-.*.^ E W W R 0 t u y t q q ; 2 - - o 1 1 o o - ; ; O ; :.O O O ",
"% % % @ = X X X # # & g 3 4 4 # @ r $ 1 1 e e m y t M ] Q | ^ ^ ,.v.n.V.C.J.J._.(.`.].,X1XtXhXmXmXhXtX,X,X].].(.^.^.G.h.B.n.V.b.j.z.z.3.2.,.>.a s >.{ ' >.i 2 1 - 2 ; o # o O o r { S { q.; O s ",
"f f c v l * $ X # # # # # & 1 & # w w r e o.o.M i y Y Y R ! ,.,.^ l.f.g.B.J.J.H._.`.&X1X2XtXkXnXnXkXtX3X,X].{.{.^.h.J.C.B.B.n.x.;.;.*.^ ~ ~ W a s W p t p i : s : m e ; < ; # O O r s : q.> O O ",
"= + g j 1 4 4 X @ # 4 * 1 1 1 < 1 w 1 A w ; :.i 5 8 _ ` 1.>.U ~ =.x.l.d.B.J.J.J.G.`.`.#X3XtXNXvXNXhXiX3X%X].(.`.^.^.G.C.B.B.F.l./ / =.L.,.W W 0 s a y.y.y q r ; ; O r o 1 O o ; : 1.q.0 1.s O O ",
"% @ f f # $ i O @ # * w r S w # < 1 # w ; ; [ i ; C C u 0 ~ U ^ c.-.f.V.C.C.J.G.).^.(.#X1XtXiXkXkXhXrX3X,X(.{.{.G.G.J.C.F.d.s.j./ %.=.*.~ | >.0 I a 3.>.[ S o r o r s - ; O o O : { >.0 :.s O r ",
"% c H F 4 o y X # 3 1 r r S e - o r w 2 ; ; i ' p {  .` @.E Q ^ c./ z.f.g.Z.B.H.@X`.`.].%X1XtXtXtXtX3X,X#X].`.^.^.G.J.B.V.d.l.b.%.k.<.U ,.1.>.0 | R >.s u y ; q r >.r ; 1 O $ O r i W > >.a X $ ",
"* g v h 4 w y o   < < w 1 i 1 ; < 1 e 1 < - : p ] ' 8 Y _ T U $.,.c.v.s.f.J.J.).@X&X`.[.#X,X3X1X3X3X,X,X].(.^.^.^.J.Z.h.V.V.z./ c.c.k.$.,.W 3.0 3.0 s W [ e q 2 t ' O o r o o 1 >.1.w.] S S ; O ",
"@ & & + # y 5 2 5 5 5 e i S m y r < o 1 < - : > >.' 0 : +.T ! ! &.I.E.a.f.G.h.h.Z.'././.[.,X1X<X<XtX%X].`.`.).J.Z.B.g.d.d.l.<.,.! ^ c.^ | R , a 1.>.t ) A $ < 1 < 8 > ; ; < # o - - q.t : q X # ",
"+ d g # + 8 o < < < w e 2 2 2 q e ; o < - O : > ' p : a +.@.R R &.I.E.v.g.h.Z.h.D.XX#X].%X$X>X3X<X3X$X_.@XH.Z.Z.D.D.C.V.M.j.( ^ ! 2.2.^ Q 0 t ) W p Y q Z 1 4 w 2 i 8 6 o 1 4 * 4 < O.> > ; o o ",
"3 + +     h 1 <   4 e e < - - < < < < - O O O : ' s s a +._ +.@.K.K.m.v.d.g.h.~.).@X&X&X%X$X:X;X>XpX2XXX@XH.H.XXXXoXT.U.N.<.E E P ! | $.R ' :.{ q.0 p r x w w e 5 u 6 - < 4 v v l 5 2 > 9 m o $ ",
"h   +   . 4 5   o * 4 5 + 5 o o o o o   $ ; O O >.: > Y ..+.+.+.&.$.b.v.x.n.V.XXoX+X:X%X:X2X;X=X=X=X:XH.+XZ.).T.}.Y.E.Y.U./ ^ I R 3.$.| T p O.O.>.s p 1 l Z Z z 5 8 . 9 5 1 * d g h 4 - [ - < # ",
"& @ o X X # $ # @ * c l * 4 h h b 4 $ X # 1 O 1 S ' s t :.8.e._ $.%.k.k.k.b.m.oX=XOXXX@X+X:X=X*XoXoXH.).@XV.}.}.|.Y.N.2.c.^ U R ..w.&.$...) u +.+.T 6 5 h F K ` M - - - h 5 v & d # & - O.< & # ",
"# # X o X $ 4 4 * d c D D F K K H J Z $ o # - O S i i r S :.0.r.#.%.%.k.k.k.m.Y.E.!.OX@X$X+X X|.+XOX+XXX).D.XX*X*XR.L.L.3.^ I W t.t.&.&.&.) O.` ) 8 6 # j F N h h - < < 6 # g c d g 4 < V o   # ",
"* $ = # X w g c D F L L 4.4.4.G L L Z $ 1 - < o m x 1 m w A O.O.@.( ( ( ( s.S.}.S.}.>X>X>XXX|.-X=XD.D.T.:XOXF.}.Y.*XR.<.^ R 0 W _ t.K.&.` C C X.) 6 6 5 G D h h z 1 6 2 6 4 g v g l h 5 e 1 $ * ",
"d @ X X @ * l d d k k k j j j j l c $ o $ $ # # w x S 8.S x J O._ ! $.U U R.l.M.~.@X:XOXOXY..X;X*XT.S.x.F.n.T.E.A.N.|.R.E } W i y.0.e...+.+.+.` 6 9 . z F g j g 3 3 < 5 < 4 v N F F z N z z w l ",
"d @ o X 4 * c d w k k k c c c v c x # $ O $ o # N 5.h n z X.p.` _ ..E P ( <.l.A.S.:X:X+X!.T..X-X*XY.A.x.x.T.!.oXT.U.N.R.E @.] 8 { P.r.{ 8.O.X.O.6 C 1 5 4.K K v N g o < < e z l c g l z z n b c ",
"% @ #   4 g c d k l k k j g l l j l # $ ; ; o < h N m G V B N y R &.K.I U ^ N.}.=X:XXXoXS.v..X-X*X|.A.v.b.Y.E.E.Y.N.M.c.U P.y.u ) 0.0.P.w.+.8 V - X.o.  c D D 5.7.B # < < 5 4 z b b V n h 4 w l ",
"& * &   g g c g d d d d j f 4 4 g g % X O 9 < 5 h K J J G e h C _ P.1.R I U =.|.=X@X!.H.v.c.Q..XOXXXv.b.b.v.|.U.L.L.j.<.I K..X] Y ) _ _ r.r.X.C - i Z 1 5.5.v v D b 4 < < 2 z N b l V N z x v c ",
"f g & + * g g f d d d f f c l g D L :.< O - 5 h 5.8.J v z z n X.8. .) R Q U =.l.=XXXXXF.x.c.Q..X;X+XA.b.k.v.L..XU.c.c.<.P $.P. .) _ 8 Y ` ` +.{ 2 e 4 o N 5.7.5.D v #   5 X.J g h 3 4 g 5 N l d ",
"& & # @ $ % * % k k k k f k L 7.7.4.v # <   O.8.K x z v j G 7.e.o.' M R R ! Y.f.!.!.!.b.c.2.Q..X;XXXT.s.<.v.j.*XE.I.1..., 1.,.} ) W.+.V C C y m O.X.B v g v D F 5.O.z 4 5 4 z K 5.F g * * * d c ",
"& % * % % % % * * * k D L 6.6.D c k c # #   z m x l x H 5.7.9.X.X.A p u T R.|.XXJ.!.U.k.2.2.Q..X;XoXT.k.<.<.c.L..XK.K.+.Q  ...7 ` r.r.O.C 8 n 5 5 B J J l g h h z B 4 V F # % l v H K L v * % @ ",
"% @ @ % * f * d k k L 6.4.c f c f k L @ & # # @ l H B 7.8.8.N O.V y 8 C w..XE.D.!.!.L.%.&.2.Q.Q.;XT.U.k.$.#.2.$.Q.W.r.+.u C ` ` 8 ` r.e.X.2 2 1 z < w O.5.H g g 4 3 + z F g l d * * * b K K Z d ",
"% * d d * % k c L 6.4.k k k k f 6.7.6.$ o o . < w :.8.8.7.X.X.G e y n :..XR.Y.F.T.A.<.#.#.t.P.Q.-XF.x.<.| #.#.| w..XP.e.V m y ` n 8 [ e.e.8.n 5 5 4 4 l F 5.L G 4 & < & 4 l b H b v l * w l D L ",
"% f * * f D 6.6.D j f g f f D 7.7.6.b = $ 1 4 o < B 7.8.V O.C 5 C C p w.w.<.M.V.F.v.$.|  . .#.2.Y.~.S.x.~ >...P.,.P.q.{ i y y y { V 6 C X.O.A n 4 5 z & 4 n G G X.g 3 & * * & * D D b g * l d $ ",
"f * f k D D c f g & f f k f f c c g w @   # C 2 < < 5 B J 4 z n 8 6 { 3.E c.A.T.U.k.!  .+. ...2.A.D.V.;.~ Q ] 1.}  .0.] ` i m 8 n V ` m 5 5 A V B 5 5 4 z g h h * 4 * g l $ l d d g 4 * $ * w w ",
"& f * * % * k d f * g * d g c j g 4 h < - < y 4 4   1 B h x e z y u :.| ! v.A.U.L.<.] { { { +.2.A.D.D.j.~ p ' ] { W +.O.C 8 n e n 5 V n y 1 C B V B N 4 5 h z g * l * 4 d d d @ * % # * w $ $ * ",
"& % % f d * % * f * f g * * g d 4 z z < < < 1 y n z < 4 w z w e 8 :.1.I <.b.m.v.<.$.' X.O.{ ..2.D.Z.F.j.} >.` u ) u 8 ` C C C h n 5 n C A e 1 5 n m B n z h h h l 4 g g * d @ l d d * * * * $ $ ",
"* * % * * * d * * & * 4 * 4 g w z z z 5 - 9 2 y V 4 5 z n w 5 5 ` +.} U <.k.b.k.%.@.` A X.[ } <.V.T.T.c.w.S V m m C y C y e B N n 5 5 n B m e 5 5 z z n n h 5 g l l w * * * * * $ $ * $ $ $ $ $ ",
"* % d * * * $ * * 4 * * 4 4 4 l z w 4 1 o o 5 m n 5 4 5 5 2 5 C +.#.P ,.-.j.s./ $.Y V J [ [ T =.x.V.n.<.1.M V J N O.V C u M N h h n z 5 z V B z 5 5 z n n z h 5 4 4 g w d * * d * * * * $ $ $ % ",
"% $ $ $ $ * $ * 4 * $ $ w w z w w * $ o o - 5 n 1 5 h 5 2 6 8 { +.I E c.N.A.L.k.! Y C V V ) T ,.x.V.x.=.| i M A B V y u :.1.` C 8 z 5 5 5 n B n 5 5 5 5 z w z 4 4 4 d w w * d * * * * * % * % $ ",
"% % % * $ $ * * * 1 4 4 w e l w 4 $ & # 3 5 5 1 5 5 8 2 6 8 ` +._ , %.2.c.c.c.$.T u M G V C W ,.x.A.V.<.~ a y C n V { R W T 8 y n n z 5 5 5 e C 5 5 4 4 4 5 4 4 4 4 4 * * d * * * * $ * * * $ $ ",
"$ % $ % $ & * * $ * * w w l 4 * & & & 1 5 4 4 < 5 4 2 6 6 ` { } 8 R &.%.<.k.,...Y n N V V C p ,.l.x.m.k.| R 8 e N n  .8 a } 1.{ N n z z e 2 5 e n z 5 1 3 4 4 z w 4 4 4 w * * * * * * * * $ % * ",
"$ $ $ $ $ $ $ $ 4 * 4 4 4 4 4 $ 3 3 4 h w 1 1 5 5 4 5 5 2 _ ..u , @.$.%./ %.! T C N N N N C M ~ <.z.x.k.| ) n n n h ` ` , W +._ 8 y 5 n 5 5 5 5 n z 5 4 4 < 4 g e z 4 4 * 1 * * * * * * * $ $ $ ",
"$ * $ $ & * * & * 4 * * 4 & # & 3 6 5 h 4 < 5 w 4 1 < 5 C ' ) , R @.@.$.%.^ ..T C N N C n y ) ..,.<.j./ Q u n h z 4 y [ 7 , _ _ i z 5 5 5 5 5 4 5 z z 5 4 * * 3 5 5 5 4 4 4 4 * * w * * * * % * ",
"* * % * * * 4 l * w 4 & # & & & 3 h 5 5 < 5 w 1 $ 4 2 e ` _ 8 , _ ..2.%.%.^ E 8 8 n h n n C p Q ,./ / %.} u n z v z n u 8 , R ) S n 2 5 e 5 2 5 5 5 5 z h 4 4 4 3 4 w w 4 4 * 4 * * d d * * * $ "
};
